<svg class="animated" id="freepik_stories-virtual-reality" xmlns="http://www.w3.org/2000/svg" viewBox="0 0 500 500" version="1.1" xmlns:xlink="http://www.w3.org/1999/xlink" xmlns:svgjs="http://svgjs.com/svgjs"><style>svg#freepik_stories-virtual-reality:not(.animated) .animable {opacity: 0;}svg#freepik_stories-virtual-reality.animated #freepik--background-complete--inject-70 {animation: 3s Infinite  linear floating;animation-delay: 0s;}svg#freepik_stories-virtual-reality.animated #freepik--Galaxy--inject-70 {animation: 6s Infinite  linear wind;animation-delay: 0s;}            @keyframes floating {                0% {                    opacity: 1;                    transform: translateY(0px);                }                50% {                    transform: translateY(-10px);                }                100% {                    opacity: 1;                    transform: translateY(0px);                }            }                    @keyframes wind {                0% {                    transform: rotate( 0deg );                }                25% {                    transform: rotate( 1deg );                }                75% {                    transform: rotate( -1deg );                }            }        </style><g id="freepik--background-complete--inject-70" class="animable" style="transform-origin: 250.008px 236.075px;"><g id="elj5asgumn9fh"><g style="opacity: 0.4; transform-origin: 250.008px 236.075px;" class="animable"><path d="M31.13,194.16a40.26,40.26,0,0,0,2.95,15.36,25.79,25.79,0,0,0,9.28,11.73A20.7,20.7,0,0,0,46.53,223a18.25,18.25,0,0,0,10.15,1.13,27.44,27.44,0,0,0,12.23-5.9c.22-.18.47-.38.66-.55l.52-.49c.33-.35.67-.68,1-1.06a19.75,19.75,0,0,0,1.8-2.42,35.37,35.37,0,0,0,3-5.82,100.67,100.67,0,0,0,4.42-13.75c2.47-9.71,4.44-20,6.79-30.43.58-2.62,1.2-5.24,1.86-7.88s1.35-5.29,2.1-8a112.55,112.55,0,0,1,5.74-16.24c.64-1.39,1.34-2.79,2.17-4.21.42-.71.88-1.44,1.37-2.15s1-1.36,1.56-2a34.33,34.33,0,0,1,7.22-6.33c5.09-3.42,10.32-5.56,15.34-7.72s10-4.14,14.65-6.55a69,69,0,0,0,13-8.47,45.2,45.2,0,0,0,9.81-11.42,35.43,35.43,0,0,0,4.94-13.53,22.6,22.6,0,0,0-.12-6.54,15.37,15.37,0,0,0-2.09-5.45,12.68,12.68,0,0,0-8.38-5.68,17.69,17.69,0,0,0-5.31-.21,24.14,24.14,0,0,0-5.53,1.36c-.46.17-.92.37-1.38.57l-1.63.71c-1.09.49-2.16,1-3.21,1.53-2.1,1.08-4.15,2.24-6.17,3.53-4,2.56-8,5.66-12.44,9A121,121,0,0,1,106,77.66a94.25,94.25,0,0,1-16.7,7c-.71.24-1.42.43-2.14.64l-1.92.54c-1.06.31-2.13.66-3.2,1-2.13.75-4.24,1.61-6.29,2.56A52.39,52.39,0,0,0,55.22,105.6a53.28,53.28,0,0,0-6.5,11.53,54.82,54.82,0,0,0-2.28,6.58,68.5,68.5,0,0,0-1.62,7.06c-.42,2.42-.74,4.91-.94,7.43-.11,1.19-.18,2.73-.28,4.13s-.24,2.85-.41,4.27A120.46,120.46,0,0,1,40,163.18c-1.38,5.39-3.11,10.6-4.86,15.73-.88,2.56-1.76,5.11-2.54,7.65A28.61,28.61,0,0,0,31.13,194.16Zm-2.08,0a21.57,21.57,0,0,1,.43-4.22c.24-1.37.56-2.7.87-4,.62-2.64,1.3-5.24,1.85-7.86s1-5.24,1.41-7.87.56-5.26.68-7.89a78.31,78.31,0,0,0-1-15.57c-.19-1.27-.44-2.54-.69-3.79s-.55-2.42-.85-3.92a79.4,79.4,0,0,1-1.29-8.69,63.86,63.86,0,0,1,.84-18.18A56,56,0,0,1,38,94.41,62.06,62.06,0,0,1,50.35,79.69a70.06,70.06,0,0,1,15.72-10.4,72.9,72.9,0,0,1,8.63-3.57q2.2-.77,4.5-1.38l3.7-1a83.8,83.8,0,0,0,13.25-4.87A107.1,107.1,0,0,0,109,51.22c4.4-2.81,9.17-6,14.45-8.82a85.74,85.74,0,0,1,8.16-3.85c1.4-.57,2.81-1.09,4.23-1.59l2.14-.71c.81-.24,1.62-.48,2.45-.68a36.7,36.7,0,0,1,10.36-1.12,31.2,31.2,0,0,1,10.56,2.2,27.61,27.61,0,0,1,9.18,6.06,25.76,25.76,0,0,1,5.88,9.11,27.51,27.51,0,0,1,1.75,10.12,33.11,33.11,0,0,1-1.5,9.48,51.27,51.27,0,0,1-8.35,15.65,63,63,0,0,1-5.68,6.49,72.32,72.32,0,0,1-6.42,5.62c-8.93,7-19.09,11.54-28.26,16.9A58.66,58.66,0,0,0,115.67,125a22.66,22.66,0,0,0-3.92,5.27c-.23.45-.45.91-.64,1.37s-.36.91-.54,1.41c-.34,1-.65,2.1-.93,3.23-.57,2.28-1,4.75-1.39,7.26s-.73,5.08-1.08,7.67l-1,7.87c-.34,2.64-.7,5.3-1.11,8-1.64,10.69-3.71,21.58-7.6,32.43a75.61,75.61,0,0,1-7.84,16c-.88,1.29-1.8,2.57-2.82,3.82a34.94,34.94,0,0,1-3.31,3.61,31.94,31.94,0,0,1-3.93,3.24,24.85,24.85,0,0,1-2.2,1.4l-1.17.63c-.37.19-.7.33-1.06.5a43.59,43.59,0,0,1-8.82,3,32.85,32.85,0,0,1-9.39.69,27.55,27.55,0,0,1-9.08-2.26,24.46,24.46,0,0,1-4-2.25,25.94,25.94,0,0,1-3.5-2.81,34.78,34.78,0,0,1-8.75-14.56A56,56,0,0,1,29.05,194.18Z" style="fill: rgb(235, 235, 235); transform-origin: 103.607px 133.455px;" id="el2aj88f63r2n" class="animable"></path><path d="M381,174.32a100.73,100.73,0,0,0,20.86,16.49c7.58,4.7,15.57,8.72,23.67,12.76,4,2.06,8.13,4.05,12.19,6.25a124.91,124.91,0,0,1,12.15,7.27,61.47,61.47,0,0,1,11.46,10,38.56,38.56,0,0,1,8.3,15.16c.41,1.49.65,3,.94,4.57s.28,3.1.37,4.67-.07,3.09-.18,4.64-.41,3-.64,4.51A59.48,59.48,0,0,1,464.5,277a69.34,69.34,0,0,1-9.59,14,97,97,0,0,1-11.56,11,203.1,203.1,0,0,1-24.21,16.4l-11.73,6.92c-1.92,1.12-3.77,2.28-5.64,3.42l-2.75,1.7-2.69,1.74c-3.52,2.37-6.94,4.72-10.06,7.31a68.85,68.85,0,0,0-8.54,8.09,70.94,70.94,0,0,0-7.17,10.09c-2.24,3.71-4.35,7.65-6.39,11.73-4.08,8.16-7.81,16.8-11.83,25.48l-3.08,6.52c-1.08,2.18-2.17,4.34-3.35,6.5A96,96,0,0,1,338,420.5a48.69,48.69,0,0,1-11,10.91,34.79,34.79,0,0,1-14.55,5.86,40.2,40.2,0,0,1-7.64.42l-3.73-.28c-1.21-.14-2.37-.35-3.56-.53a78.48,78.48,0,0,1-13.91-3.72,74.74,74.74,0,0,1-13-6.49c-1-.67-2.07-1.28-3-2l-2.95-2.14c-1.89-1.53-3.79-3.07-5.55-4.74A98.58,98.58,0,0,1,241,394.9a126.85,126.85,0,0,1-6.69-13c-2-4.44-3.73-9-5.31-13.63-.73-2.32-1.54-4.64-2.18-7l-1-3.52-.9-3.53q-1.76-7.1-3-14.29c-.39-2.39-.75-4.8-1.11-7.2s-.61-4.82-.86-7.23-.5-4.83-.66-7.24-.34-4.84-.42-7.26l-.55-13.89c-.09-2.26-.25-4.5-.37-6.75l-.19-3.37-.26-3.35a438.59,438.59,0,0,0-7.29-53c-1.75-8.81-3.66-17.58-5.47-27-.92-4.7-1.7-9.64-2.25-14.93a90.21,90.21,0,0,1-.18-16.9,70.11,70.11,0,0,1,3.9-17.63,80.94,80.94,0,0,1,7.56-15.48c1.41-2.4,3-4.56,4.48-6.77.77-1.08,1.57-2.1,2.35-3.15s1.55-2.08,2.46-3.13l2.63-3.11L227,121l1.45-1.49a72,72,0,0,1,6.05-5.76c1.07-.91,2.14-1.83,3.23-2.71l3.51-2.49,1.76-1.22c.59-.4,1.25-.74,1.87-1.11l3.78-2.12c1.29-.65,2.66-1.2,4-1.79l2-.85c.68-.26,1.39-.47,2.07-.7,1.39-.44,2.77-.89,4.16-1.29s2.83-.6,4.24-.87a55.14,55.14,0,0,1,16.73-.41l2,.23c.66.11,1.31.25,2,.38,1.3.27,2.61.51,3.89.82,2.5.76,5,1.4,7.39,2.37a88.58,88.58,0,0,1,13.43,6.47,127,127,0,0,1,11.9,8,225.25,225.25,0,0,1,21,18.35c1.62,1.62,3.29,3.19,4.87,4.85s3.24,3.22,4.81,4.88,3.15,3.29,4.72,4.94l4.68,5Zm-2.12,2.1c-6.19-6.55-12.62-12.85-19.34-18.79L357,155.41l-2.58-2.16c-1.7-1.45-3.47-2.82-5.23-4.2-3.49-2.78-7.12-5.39-10.78-7.9a146.44,146.44,0,0,0-22.92-12.89,106.69,106.69,0,0,0-11.91-4.52,75.38,75.38,0,0,0-11.9-2.6,58,58,0,0,0-5.8-.51l-2.82,0c-.46,0-.93,0-1.39,0l-1.37.14a37.88,37.88,0,0,0-10.26,2.26c-.8.32-1.58.64-2.37.92l-2.28,1.15c-.38.19-.76.35-1.13.56l-1.08.7c-.72.48-1.46.89-2.16,1.38L259,129.36c-.35.27-.71.49-1,.79l-1,.9-2,1.76-1.92,2a78.55,78.55,0,0,0-7.25,8.85c-.59.75-1.16,1.63-1.73,2.49s-1.16,1.72-1.7,2.57c-1,1.72-2.12,3.43-3,5.11a54.82,54.82,0,0,0-4.34,9.9,41.8,41.8,0,0,0-1.81,9.71c-.46,6.66.63,14.61,2.16,23.37.74,4.35,1.59,8.84,2.43,13.42s1.58,9.25,2.34,13.93a407.5,407.5,0,0,1,4.76,57.27l.07,3.59v3.59c0,2.39,0,4.78,0,7.17l-.31,14c-.09,4.44-.08,8.87,0,13.3l.19,6.63c.11,2.19.2,4.4.33,6.6.33,4.38.62,8.77,1.18,13.1l.37,3.26.46,3.24c.28,2.17.71,4.29,1.07,6.44a133.56,133.56,0,0,0,7,24.79,91.94,91.94,0,0,0,5.55,11.42,66.08,66.08,0,0,0,7.19,10.27,54.71,54.71,0,0,0,31.5,18.92c1,.19,2.08.43,3.09.58l3,.33a31.37,31.37,0,0,0,5.91-.25A23.55,23.55,0,0,0,322.15,424a35,35,0,0,0,8.38-9,74.87,74.87,0,0,0,6.14-11.61c1.74-4.12,3.29-8.39,4.68-12.77,2.83-8.74,5.21-17.81,8-27,1.44-4.61,3-9.28,4.91-14a91,91,0,0,1,7-14.11c5.94-9.53,13.53-16.93,21.34-23.32,15.66-12.64,32.25-21.19,45.59-31,6.66-4.9,12.37-10,16.5-15.89a42.71,42.71,0,0,0,5.07-9.51,21,21,0,0,0-1.12-18.88,46.75,46.75,0,0,0-7.1-9.63,112.94,112.94,0,0,0-9.42-8.91c-3.4-2.81-6.92-5.58-10.53-8.24-7.2-5.38-14.69-10.48-22-15.9A160.38,160.38,0,0,1,378.89,176.42Z" style="fill: rgb(235, 235, 235); transform-origin: 336.482px 267.731px;" id="elc8i5gjkp7v5" class="animable"></path><path d="M396.18,131.73a36.89,36.89,0,0,1-7.35,0,52.22,52.22,0,0,1-13-3.16A86.27,86.27,0,0,1,364,123.4a54.49,54.49,0,0,1-10.63-7.52,51.29,51.29,0,0,1-8.74-10.35A32.08,32.08,0,0,1,340,91.45a30.88,30.88,0,0,1,.37-7.91,25.1,25.1,0,0,1,2.47-7.23,26.1,26.1,0,0,1,4-5.53,51,51,0,0,1,4.48-4.18,17.26,17.26,0,0,1,2.7-1.78,19.65,19.65,0,0,1,3.05-1.18,32.37,32.37,0,0,1,6.58-1,55.65,55.65,0,0,1,13.85.77,30.61,30.61,0,0,1,20.86,14.26,54.39,54.39,0,0,1,5.15,11.79c1.32,4.11,2.56,8.08,4.05,11.88s3.18,7.48,4.27,12.06a19.12,19.12,0,0,1,.55,3.72,14.63,14.63,0,0,1-.36,4.37,11.39,11.39,0,0,1-2.91,5.08,12.88,12.88,0,0,1-1.11,1c-.37.29-.76.58-1.16.85a17.89,17.89,0,0,1-2.3,1.24,20.35,20.35,0,0,1-2.25.87c-.69.21-1.45.44-2.11.58l-1,.22-1,.18C397.47,131.59,396.83,131.66,396.18,131.73Z" style="fill: rgb(235, 235, 235); transform-origin: 376.155px 97.2097px;" id="elyisd5oa94c" class="animable"></path></g></g></g><g id="freepik--Plant--inject-70" class="animable" style="transform-origin: 422.887px 388.629px;"><path d="M402.25,354c18.09,17.7,21.12,45.09,17.31,69.08-.1.54-.94.39-.94-.12,0-5.46.17-10.87.15-16.27-.1-.24-.18-.47-.28-.72-4.72-3.43-9.06-7.31-11.75-12.62-3-5.94-4.2-12.64-6.51-18.84-.22-.6.41-.42.83-.12,11,8.11,14.5,16.84,17.66,28.51a97.5,97.5,0,0,0-1.91-18.17c-2.38-11.07-7.08-22-15-30.25C401.48,354.18,401.94,353.71,402.25,354Z" style="fill: rgb(38, 50, 56); transform-origin: 410.596px 388.665px;" id="ello1nnqqb5m" class="animable"></path><path d="M398.86,356.08c-3.11.11-5.06,5.08-7.49,6.53a2.33,2.33,0,0,1-3.43-.54c-2.4-3.35.89-7.49,4-9.8-2.22.91-4.05,2.51-6.44,3a2.24,2.24,0,0,1-2.91-1.74c-1.06-4.57,4.68-6.6,8.61-6.7-1.91-1.32-7.37-4.93-4.47-6.7s9.36,3.37,11.45,5.07c3.08,2.5,6.74,6.22,6.88,10.13C405.23,359.84,401.25,357,398.86,356.08Z" style="fill: rgb(255, 199, 39); transform-origin: 393.763px 351.45px;" id="elv7py43tezb" class="animable"></path><g id="elnz93trkogng"><path d="M398.86,356.08c-3.11.11-5.06,5.08-7.49,6.53a2.33,2.33,0,0,1-3.43-.54c-2.4-3.35.89-7.49,4-9.8-2.22.91-4.05,2.51-6.44,3a2.24,2.24,0,0,1-2.91-1.74c-1.06-4.57,4.68-6.6,8.61-6.7-1.91-1.32-7.37-4.93-4.47-6.7s9.36,3.37,11.45,5.07c3.08,2.5,6.74,6.22,6.88,10.13C405.23,359.84,401.25,357,398.86,356.08Z" style="opacity: 0.1; transform-origin: 393.763px 351.45px;" class="animable"></path></g><path d="M399.76,356.85c-4-1.81-11.62.79-12.27-.71-1.32-3.07,4.79-5.17,8.08-5.57-3-.83-8.85-2.14-8.67-5.06.22-3.58,8.92-.5,13.33,2.87,5.54,4.26,5.51,8.36,4.59,9.18C403.56,358.69,400.41,357.15,399.76,356.85Z" style="fill: rgb(255, 199, 39); transform-origin: 396.089px 350.939px;" id="elsv5rprdfwip" class="animable"></path><path d="M443.44,352.27c-18.75,17-22.82,44.25-19.93,68.37.08.54.93.43.95-.08.21-5.46.25-10.87.47-16.26.11-.25.2-.48.31-.72,4.84-3.25,9.33-7,12.21-12.16,3.25-5.82,4.69-12.47,7.23-18.58.24-.59-.4-.44-.83-.15-11.29,7.69-15.13,16.28-18.73,27.82a96.5,96.5,0,0,1,2.61-18.08c2.79-11,7.91-21.76,16.17-29.67C444.2,352.46,443.76,352,443.44,352.27Z" style="fill: rgb(38, 50, 56); transform-origin: 433.701px 386.593px;" id="elptg15qlo8wc" class="animable"></path><path d="M446.75,354.46c3.11.22,4.87,5.26,7.23,6.81,1.26.82,2.51.82,3.45-.41,2.53-3.26-.6-7.52-3.61-9.95,2.18,1,3.95,2.66,6.32,3.21a2.25,2.25,0,0,0,3-1.63c1.23-4.53-4.43-6.78-8.35-7,2-1.25,7.55-4.64,4.72-6.52s-9.48,3-11.64,4.63c-3.16,2.38-7,6-7.26,9.86C440.24,358,444.32,355.32,446.75,354.46Z" style="fill: rgb(255, 199, 39); transform-origin: 451.949px 350.194px;" id="elk1g8yg2jua8" class="animable"></path><g id="elpbkmzdn3c3"><path d="M446.75,354.46c3.11.22,4.87,5.26,7.23,6.81,1.26.82,2.51.82,3.45-.41,2.53-3.26-.6-7.52-3.61-9.95,2.18,1,3.95,2.66,6.32,3.21a2.25,2.25,0,0,0,3-1.63c1.23-4.53-4.43-6.78-8.35-7,2-1.25,7.55-4.64,4.72-6.52s-9.48,3-11.64,4.63c-3.16,2.38-7,6-7.26,9.86C440.24,358,444.32,355.32,446.75,354.46Z" style="opacity: 0.1; transform-origin: 451.949px 350.194px;" class="animable"></path></g><path d="M445.82,355.19c4.05-1.66,11.58,1.24,12.29-.24,1.43-3-4.59-5.35-7.87-5.88,3.07-.71,8.93-1.79,8.86-4.73-.08-3.58-8.89-.84-13.42,2.37-5.71,4-5.83,8.15-4.94,9C442,356.89,445.16,355.46,445.82,355.19Z" style="fill: rgb(255, 199, 39); transform-origin: 449.715px 349.41px;" id="elgcokr7if2a5" class="animable"></path><path d="M424.27,397.17a185.19,185.19,0,0,1-5.82,26.88.67.67,0,0,1-1.31-.26c1.23-8.29,3.48-16.42,4.71-24.7a124.43,124.43,0,0,0,1.44-25.36c-.79-14-4.58-28.81-13.69-39.73-.2-.26.22-.63.43-.39,18.23,21.27,15.33,47.34,15.32,49.68,2.58-8.81,5.24-18.9,15-27.86.42-.39.75-.21.68.45-1.75,16.33-6.29,24.85-15.76,33.58C425,392.05,424.68,394.63,424.27,397.17Z" style="fill: rgb(38, 50, 56); transform-origin: 425.293px 379.034px;" id="ellxbiuctve1" class="animable"></path><path d="M409.43,336.44c-3.28-1.45-7.8,2.72-11.05,3-1.72.15-3-.52-3.29-2.29-.81-4.69,4.7-7.32,9.08-8.16-2.76-.17-5.48.56-8.18-.17-1.64-.45-2.54-1.57-2.15-3.27,1.21-5.27,8.19-4.5,12.32-2.62-1.32-2.33-5.17-8.82-1.27-9.2s8,8.21,9.33,11c1.93,4.13,3.86,9.85,2,14C414.15,343.55,411.43,338.64,409.43,336.44Z" style="fill: rgb(255, 199, 39); transform-origin: 405.362px 327.248px;" id="eljz9x2825gk" class="animable"></path><g id="elbqbqkx5gy8q"><path d="M409.43,336.44c-3.28-1.45-7.8,2.72-11.05,3-1.72.15-3-.52-3.29-2.29-.81-4.69,4.7-7.32,9.08-8.16-2.76-.17-5.48.56-8.18-.17-1.64-.45-2.54-1.57-2.15-3.27,1.21-5.27,8.19-4.5,12.32-2.62-1.32-2.33-5.17-8.82-1.27-9.2s8,8.21,9.33,11c1.93,4.13,3.86,9.85,2,14C414.15,343.55,411.43,338.64,409.43,336.44Z" style="opacity: 0.1; transform-origin: 405.362px 327.248px;" class="animable"></path></g><path d="M410,337.69c-3.22-3.88-12.45-5-12.37-6.91.17-3.84,7.57-2.95,11.19-1.71-2.73-2.39-8.11-6.67-6.45-9.62,2-3.6,9.51,4,12.38,9.69,3.61,7.21,1.51,11.45.14,11.84C413,341.52,410.51,338.33,410,337.69Z" style="fill: rgb(255, 199, 39); transform-origin: 407.192px 329.78px;" id="elnvddgiqpwdg" class="animable"></path><path d="M436.27,402.08l8,61.46H395.37c1-5.45,10.11-61.53,10.11-61.53Z" style="fill: rgb(255, 199, 39); transform-origin: 419.82px 432.775px;" id="elnb8v0vqg2nn" class="animable"></path></g><g id="freepik--Table--inject-70" class="animable" style="transform-origin: 250px 463.514px;"><path d="M36.71,463.51c136.65-.61,289.93-.61,426.58,0-136.65.62-289.93.62-426.58,0Z" style="fill: rgb(38, 50, 56); transform-origin: 250px 463.514px;" id="elxs559n0h48b" class="animable"></path></g><g id="freepik--Galaxy--inject-70" class="animable" style="transform-origin: 258.024px 197.245px;"><path d="M160,300.76c28.1,48.15,64.9,41.08,106.7,36.06s59.27,25.63,98.87,6.13c29.14-14.34,14.65-43.54,35.46-63.12,11.08-10.43,62.32-21.5,62.32-78.19,0-48.79-60.13-60.87-93.11-83.92s-45.47-83.26-100.9-85.47S182,88.11,151.88,89.32s-68-9.68-91.28,29.39c-15.86,26.6-8.46,73.05,27.81,92.16C88.41,210.87,131.84,252.61,160,300.76Z" style="fill: rgb(69, 90, 100); transform-origin: 258.024px 190.851px;" id="elm596xdy7j5r" class="animable"></path><path d="M438.39,263.65c-3.43,13.48-20.14,24.93-33.8,19.58a116.21,116.21,0,0,0,17.23-8.81c5.63-3.51,10.64-7.25,16.57-10.77Z" style="fill: rgb(69, 90, 100); transform-origin: 421.49px 274.112px;" id="elad8oltkt6vc" class="animable"></path><path d="M290.85,346.13c12,2.59,23.47,5.88,35.35,8.09,8.7,1.55,17.39,2.75,26.16,1.69a45,45,0,0,0,8.84-2c-17.47,16.68-53.6,5.53-70.35-7.79Z" style="fill: rgb(69, 90, 100); transform-origin: 326.025px 354.211px;" id="elfsvy35e54go" class="animable"></path><path d="M154.74,80.14a94.66,94.66,0,0,0,11.64-8.32c6.18-5,12.1-10.17,18.47-15.07C195.05,49,206.44,41,219.51,39.34c-11,6.83-20.16,15.13-30.39,23-6.34,4.84-13,9.71-20.27,13.37a38.64,38.64,0,0,1-14.11,4.47Z" style="fill: rgb(69, 90, 100); transform-origin: 187.125px 59.76px;" id="el7i870bwh4no" class="animable"></path><path d="M307.46,277.41l3.31-3.31a2.42,2.42,0,0,0,0-3.43h0a2.42,2.42,0,0,0-3.43,0L304,274a2.42,2.42,0,0,0,0,3.43h0A2.42,2.42,0,0,0,307.46,277.41Z" style="fill: rgb(235, 235, 235); transform-origin: 307.385px 274.053px;" id="elz8mk4xz6f69" class="animable"></path><path d="M352.66,310.21l2.1-4.18a2.44,2.44,0,0,0-1.08-3.26h0a2.43,2.43,0,0,0-3.26,1.08l-2.1,4.18a2.43,2.43,0,0,0,1.08,3.26h0A2.43,2.43,0,0,0,352.66,310.21Z" style="fill: rgb(235, 235, 235); transform-origin: 351.538px 307.03px;" id="elrlnlv3pe6fn" class="animable"></path><path d="M323.69,268.07l2.49-.36a2.42,2.42,0,0,0,2.05-2.74h0a2.42,2.42,0,0,0-2.74-2.06l-2.49.35a2.43,2.43,0,0,0-2.06,2.75h0A2.43,2.43,0,0,0,323.69,268.07Z" style="fill: rgb(235, 235, 235); transform-origin: 324.585px 265.49px;" id="elf605ryjqdfb" class="animable"></path><path d="M303.94,300.9l-.36-2.49a2.43,2.43,0,0,0-2.74-2.06h0a2.43,2.43,0,0,0-2.06,2.75l.36,2.49a2.43,2.43,0,0,0,2.74,2.06h0A2.43,2.43,0,0,0,303.94,300.9Z" style="fill: rgb(235, 235, 235); transform-origin: 301.36px 300px;" id="elwg1vmrbh2p" class="animable"></path><g id="elawqomqrgzi"><rect x="351.19" y="291.97" width="7.37" height="4.85" rx="2.16" style="fill: rgb(235, 235, 235); transform-origin: 354.875px 294.395px; transform: rotate(90deg);" class="animable"></rect></g><path d="M319.18,322l2.43.65a2.42,2.42,0,0,0,3-1.72h0a2.43,2.43,0,0,0-1.71-3l-2.43-.65a2.42,2.42,0,0,0-3,1.72h0A2.43,2.43,0,0,0,319.18,322Z" style="fill: rgb(235, 235, 235); transform-origin: 321.04px 319.965px;" id="elvcf2xmh6ra" class="animable"></path><circle cx="327.59" cy="293.35" r="27.99" style="fill: rgb(235, 235, 235); transform-origin: 327.59px 293.35px;" id="elj8wm9folij" class="animable"></circle><path d="M337.77,276.74a6.27,6.27,0,0,1-1,3.8,7.56,7.56,0,0,1-3.05,2.69,5.53,5.53,0,0,1-4.11.35,5.8,5.8,0,0,1-3.13-2.41,8.23,8.23,0,0,0,3.36,1.48,5,5,0,0,0,1.72,0,5.76,5.76,0,0,0,1.63-.53c.26-.13.53-.27.78-.42s.5-.32.73-.51A8.32,8.32,0,0,0,336,280,9.39,9.39,0,0,0,337.77,276.74Z" style="fill: rgb(199, 199, 199); transform-origin: 332.131px 280.281px;" id="elhqajn4eyzhl" class="animable"></path><path d="M327.71,278.35a4,4,0,0,1,.58-2.67,5.08,5.08,0,0,1,2.11-1.92,3.85,3.85,0,0,1,2.92-.21,3.68,3.68,0,0,1,2.09,1.79,6.34,6.34,0,0,0-2.32-.86,3.78,3.78,0,0,0-2.15.38A6.64,6.64,0,0,0,327.71,278.35Z" style="fill: rgb(199, 199, 199); transform-origin: 331.542px 275.853px;" id="el9lxn027i19i" class="animable"></path><path d="M318.23,297.58a3.82,3.82,0,0,1,.07,2.67,4.64,4.64,0,0,1-1.62,2.26,3.66,3.66,0,0,1-2.75.75,3.75,3.75,0,0,1-2.35-1.29,6.88,6.88,0,0,0,2.39.33,3.62,3.62,0,0,0,2-.76,5.69,5.69,0,0,0,1.49-1.67A7,7,0,0,0,318.23,297.58Z" style="fill: rgb(199, 199, 199); transform-origin: 315.044px 300.436px;" id="elil1ii8gkvmg" class="animable"></path><path d="M312.43,300.76a2.49,2.49,0,0,1-.19-1.88,3.18,3.18,0,0,1,1.13-1.64,2.53,2.53,0,0,1,2-.5,2.42,2.42,0,0,1,1.59,1,5.49,5.49,0,0,0-1.64-.07,2.49,2.49,0,0,0-1.21.52A4.77,4.77,0,0,0,312.43,300.76Z" style="fill: rgb(199, 199, 199); transform-origin: 314.549px 298.731px;" id="elcy5p4a73e2l" class="animable"></path><path d="M308.19,291.35a2.5,2.5,0,0,1,.8,1.8,2.77,2.77,0,0,1-.79,2,2.47,2.47,0,0,1-2.05.7,3,3,0,0,1-1.76-.84,9.32,9.32,0,0,0,1.74-.12,2.18,2.18,0,0,0,1.2-.6,2.92,2.92,0,0,0,.71-1.22A5,5,0,0,0,308.19,291.35Z" style="fill: rgb(199, 199, 199); transform-origin: 306.69px 293.61px;" id="el4unsavycggq" class="animable"></path><path d="M304.72,294.07a1.6,1.6,0,0,1-.69-1.24,1.93,1.93,0,0,1,.55-1.47,1.74,1.74,0,0,1,1.53-.49,1.81,1.81,0,0,1,1.2.73,9.9,9.9,0,0,0-1.18.23,1.47,1.47,0,0,0-.68.39,2.15,2.15,0,0,0-.47.71A4.28,4.28,0,0,0,304.72,294.07Z" style="fill: rgb(199, 199, 199); transform-origin: 305.668px 292.457px;" id="elk0k3ncqsdye" class="animable"></path><path d="M346.54,283.06a2.48,2.48,0,0,1-.59,1.87,2.75,2.75,0,0,1-1.91,1,2.46,2.46,0,0,1-2-.84,2.92,2.92,0,0,1-.75-1.8,8.9,8.9,0,0,0,1.38,1.07,2.23,2.23,0,0,0,1.29.35,2.8,2.8,0,0,0,1.34-.44A5.17,5.17,0,0,0,346.54,283.06Z" style="fill: rgb(199, 199, 199); transform-origin: 343.921px 284.497px;" id="el6fgyukqjign" class="animable"></path><path d="M342.15,282.79a1.61,1.61,0,0,1,.3-1.39,1.88,1.88,0,0,1,1.39-.73,1.75,1.75,0,0,1,1.47.65,1.79,1.79,0,0,1,.41,1.34,8.27,8.27,0,0,0-1-.61,1.48,1.48,0,0,0-.77-.16,2.14,2.14,0,0,0-.82.22A3.62,3.62,0,0,0,342.15,282.79Z" style="fill: rgb(199, 199, 199); transform-origin: 343.916px 281.728px;" id="el5d75b3k5zs8" class="animable"></path><path d="M330.85,302.08a6.2,6.2,0,1,0-3.11-8.18A6.2,6.2,0,0,0,330.85,302.08Z" style="fill: rgb(219, 219, 219); transform-origin: 333.401px 296.429px;" id="el1lae52uq3ye" class="animable"></path><path d="M336.28,293.5a5.57,5.57,0,0,1,3.19,3.95,6.18,6.18,0,1,0-10.8,3,5.63,5.63,0,0,1,7.61-6.94Z" style="fill: rgb(199, 199, 199); transform-origin: 333.373px 295.355px;" id="el34pxt9re3nc" class="animable"></path><path d="M341.93,297.45a8,8,0,0,1-1.37,4.63,9.35,9.35,0,0,1-3.72,3.25,6.86,6.86,0,0,1-5,.46,7.32,7.32,0,0,1-3.89-2.87,9.81,9.81,0,0,0,4.12,1.94,7.91,7.91,0,0,0,1.08.11,6.39,6.39,0,0,0,1.08-.08,6.87,6.87,0,0,0,2.06-.65c.33-.17.66-.35,1-.54s.63-.4.91-.64a9.77,9.77,0,0,0,1.61-1.54A11.4,11.4,0,0,0,341.93,297.45Z" style="fill: rgb(199, 199, 199); transform-origin: 334.941px 301.756px;" id="elr6qhtgfeht" class="animable"></path><path d="M348.71,299.81A2.31,2.31,0,1,0,347,297,2.31,2.31,0,0,0,348.71,299.81Z" style="fill: rgb(219, 219, 219); transform-origin: 349.241px 297.562px;" id="eljs926udnj3s" class="animable"></path><path d="M350.08,296.28a2.07,2.07,0,0,1,1.45,1.22,2.3,2.3,0,1,0-3.74,1.86,2.1,2.1,0,0,1,2.29-3.08Z" style="fill: rgb(199, 199, 199); transform-origin: 349.23px 297.314px;" id="elk0n6c6k6h4" class="animable"></path><path d="M352.43,297.33a2.89,2.89,0,0,1-.11,1.81,3.58,3.58,0,0,1-1.14,1.5,2.55,2.55,0,0,1-3.47-.32,3.82,3.82,0,0,0,1.65.36,2.48,2.48,0,0,0,1.45-.53A4.17,4.17,0,0,0,352.43,297.33Z" style="fill: rgb(199, 199, 199); transform-origin: 350.118px 299.253px;" id="ell6ep5e64nvb" class="animable"></path><path d="M332.83,314.79a3.29,3.29,0,1,0-3.09-3.46A3.29,3.29,0,0,0,332.83,314.79Z" style="fill: rgb(219, 219, 219); transform-origin: 333.025px 311.506px;" id="elkjn29fszlpk" class="animable"></path><path d="M333.89,309.51a2.93,2.93,0,0,1,2.32,1.35,3.27,3.27,0,1,0-4.77,3.53,3,3,0,0,1,2.45-4.88Z" style="fill: rgb(199, 199, 199); transform-origin: 332.974px 311.32px;" id="elas1anqune4" class="animable"></path><path d="M337.44,310.4a4.23,4.23,0,0,1,.18,2.54,5,5,0,0,1-1.22,2.31,3.6,3.6,0,0,1-2.37,1.17,4,4,0,0,1-2.47-.66A5.24,5.24,0,0,0,334,316a3.58,3.58,0,0,0,2-1.11,5.56,5.56,0,0,0,1.21-2A5.93,5.93,0,0,0,337.44,310.4Z" style="fill: rgb(199, 199, 199); transform-origin: 334.648px 313.414px;" id="ellbjb6q7t7ne" class="animable"></path><path d="M318.19,283.08c-1.48,2.27-4.76,2.75-7.32,1.08s-3.43-4.87-1.95-7.13,4.76-2.75,7.31-1.08S319.67,280.82,318.19,283.08Z" style="fill: rgb(219, 219, 219); transform-origin: 313.553px 280.056px;" id="elkz4slwjumf" class="animable"></path><path d="M310.05,279.15a4.27,4.27,0,0,0-.24,4.13,5.06,5.06,0,0,1-.89-6.26c1.48-2.26,4.76-2.74,7.31-1.07a5.62,5.62,0,0,1,2.66,5.07,5.35,5.35,0,0,0-2.21-2.85A4.76,4.76,0,0,0,310.05,279.15Z" style="fill: rgb(199, 199, 199); transform-origin: 313.557px 279.117px;" id="elrmw3a212sa" class="animable"></path><path d="M320,279.34a5.27,5.27,0,0,1,.72,4,4.88,4.88,0,0,1-.91,2,6.25,6.25,0,0,1-1.6,1.47,6,6,0,0,1-2.07.7,7.09,7.09,0,0,1-2.11-.06,8.69,8.69,0,0,1-3.7-1.61,17.22,17.22,0,0,0,3.8.66,6.31,6.31,0,0,0,3.45-.74,5.55,5.55,0,0,0,1.33-1.14,4.81,4.81,0,0,0,.9-1.51A6.87,6.87,0,0,0,320,279.34Z" style="fill: rgb(199, 199, 199); transform-origin: 315.587px 283.451px;" id="el8j7bj6sb9zb" class="animable"></path><g id="elmupm1us8izq"><circle cx="388.58" cy="166.5" r="31.12" style="fill: rgb(255, 199, 39); transform-origin: 388.58px 166.5px; transform: rotate(-9.62deg);" class="animable"></circle></g><g id="eljzwbb2d45h"><g style="opacity: 0.1; transform-origin: 388.395px 170.963px;" class="animable"><path d="M358.25,159.52a36.89,36.89,0,0,1,11.44-.42c6.7.71,22.73,6.49,31.42,7,12.21.66,16.34-3.81,17.82-6.5a31.27,31.27,0,0,0-4.84-10.87c-2.24,2.35-9.66,9.4-28.57,5.92-9.76-1.8-16.44-8.17-18.7-10.33A30.92,30.92,0,0,0,358.25,159.52Z" id="elednjxfbm7vc" class="animable" style="transform-origin: 388.59px 155.243px;"></path><path d="M360.82,180.56a31.16,31.16,0,0,0,35.79,16,24.67,24.67,0,0,0-3.74-4.7c-6.24-5.93-16.22-7.05-20.08-7.08A18.33,18.33,0,0,1,360.82,180.56Z" id="elkaw0ge9651" class="animable" style="transform-origin: 378.715px 189.083px;"></path><path d="M357.53,164.49c0,.28,0,.56,0,.85s0,.51,0,.77c0,.58,0,1.16,0,1.73s.05,1,.1,1.55l.06.57c0,.22.05.43.08.64l.09.64c0,.25.08.51.13.76s.09.5.14.75.1.43.14.64c.11.47.22.93.35,1.39h0c1.38,1.48,3.76,2.54,7.8,3.14,6,.89,13.94-.71,25.37,1.33a38.9,38.9,0,0,1,18.81,9.25h0a31,31,0,0,0,8.66-16.71c-1.68-1.05-7.69-3.45-25.11-.47a81.21,81.21,0,0,1-16.59,1.31c-13.15-.51-18.09-5.43-19.82-8.06h0Z" id="el2bves1j0rme" class="animable" style="transform-origin: 388.395px 176.495px;"></path></g></g><g id="elip1bllv8vyi"><g style="opacity: 0.1; transform-origin: 388.874px 171.946px;" class="animable"><path d="M400,152.5c-.14,1.38,1.37,2.65,3.37,2.85s3.73-.75,3.87-2.13-1.37-2.65-3.37-2.85S400.12,151.13,400,152.5Z" id="elt7swbkn0t4b" class="animable" style="transform-origin: 403.62px 152.86px;"></path><path d="M406.58,158.74c-.08.77.83,1.5,2,1.62s2.24-.41,2.32-1.19-.84-1.5-2-1.62S406.66,158,406.58,158.74Z" id="el41lh3aauq8m" class="animable" style="transform-origin: 408.74px 158.955px;"></path><path d="M366.85,180.28c-.12,1.18,1.21,2.27,3,2.45s3.26-.64,3.38-1.82-1.21-2.26-3-2.44S367,179.11,366.85,180.28Z" id="elp0c7q8g80lp" class="animable" style="transform-origin: 370.04px 180.6px;"></path><path d="M371.32,184c-.06.63.56,1.2,1.38,1.28a1.36,1.36,0,0,0,1.61-1c.06-.63-.55-1.2-1.38-1.28A1.37,1.37,0,0,0,371.32,184Z" id="elliuvgzsuhxs" class="animable" style="transform-origin: 372.815px 184.141px;"></path><path d="M373.54,182c0,.37.36.72.88.77s1-.21,1-.58-.36-.73-.88-.78S373.58,181.58,373.54,182Z" id="elg1idmu8j5n" class="animable" style="transform-origin: 374.48px 182.09px;"></path><path d="M390.52,191.38c-.1,1.05,1,2,2.35,2.15s2.62-.6,2.72-1.65-.94-2-2.34-2.15S390.63,190.33,390.52,191.38Z" id="el5cjasn91jud" class="animable" style="transform-origin: 393.055px 191.63px;"></path><path d="M391.93,187.31a1.24,1.24,0,1,0,1.33-1A1.17,1.17,0,0,0,391.93,187.31Z" id="elo3k0xinz6ym" class="animable" style="transform-origin: 393.148px 187.541px;"></path></g></g><path d="M357.49,167.84A250.81,250.81,0,0,0,385,177.53a247.89,247.89,0,0,0,29.1,6.77c15.2,2.49,25.84,2.19,26.89-1.39s-7.56-9.53-21.3-15.53c0,.73-.07,1.47-.15,2.21,0,.27-.06.55-.09.83,7,3.61,11.05,6.92,10.42,9.1s-6,2.83-14.05,2A172.34,172.34,0,0,1,386,175.31a172.68,172.68,0,0,1-28.5-10.82c-7.2-3.66-11.34-7-10.7-9.25s5.8-2.8,13.63-2.06a28.9,28.9,0,0,1,1.5-2.8c-15.13-2.46-26-2-27,1.52S343,161.65,357.49,167.84Z" style="fill: rgb(255, 199, 39); transform-origin: 387.966px 167.381px;" id="eloods0182zj" class="animable"></path><g id="elwl8yjrto0w"><g style="opacity: 0.2; transform-origin: 387.966px 167.381px;" class="animable"><path d="M357.49,167.84A250.81,250.81,0,0,0,385,177.53a247.89,247.89,0,0,0,29.1,6.77c15.2,2.49,25.84,2.19,26.89-1.39s-7.56-9.53-21.3-15.53c0,.73-.07,1.47-.15,2.21,0,.27-.06.55-.09.83,7,3.61,11.05,6.92,10.42,9.1s-6,2.83-14.05,2A172.34,172.34,0,0,1,386,175.31a172.68,172.68,0,0,1-28.5-10.82c-7.2-3.66-11.34-7-10.7-9.25s5.8-2.8,13.63-2.06a28.9,28.9,0,0,1,1.5-2.8c-15.13-2.46-26-2-27,1.52S343,161.65,357.49,167.84Z" id="eljez69ln0b1" class="animable" style="transform-origin: 387.966px 167.381px;"></path></g></g><path d="M357.73,170.59a275.46,275.46,0,0,0,26.89,9.47h0a276.92,276.92,0,0,0,27.53,6.74c20.81,3.91,36,3.66,37.49-1.4S438.83,172,419.6,164c0,.48.07,1,.08,1.45,16,7,26,14.08,24.71,18.41s-13.82,4.82-31.29,1.82a246.11,246.11,0,0,1-28.16-6.7,246.8,246.8,0,0,1-27.37-9.85c-16.19-7-26.36-14.21-25.06-18.58s13.49-4.79,30.61-1.93q.42-.58.87-1.17c-20.42-3.76-35.24-3.45-36.73,1.54S338.26,162.49,357.73,170.59Z" style="fill: rgb(255, 199, 39); transform-origin: 388.451px 167.197px;" id="elyl9g5k30e3" class="animable"></path><g id="elf3prkwognlh"><circle cx="93.38" cy="130.65" r="16.53" style="fill: rgb(255, 199, 39); transform-origin: 93.38px 130.65px; transform: rotate(-74.51deg);" class="animable"></circle></g><g id="elgsoinu9kioc"><circle cx="93.38" cy="130.65" r="16.53" style="opacity: 0.1; transform-origin: 93.38px 130.65px; transform: rotate(-74.51deg);" class="animable"></circle></g><g id="el6nz1te48n8d"><g style="opacity: 0.1; transform-origin: 93.3784px 131.442px;" class="animable"><path d="M109.2,135.46a19.55,19.55,0,0,0-5.16-3.22c-3.28-1.44-12.19-3-16.31-5.1-5.8-2.93-6.53-6.08-6.49-7.71a16.33,16.33,0,0,1,5.1-3.73c.41,1.67,2,6.88,11.6,10.28a20,20,0,0,0,11.34.19A16.42,16.42,0,0,1,109.2,135.46Z" id="ela6ugfwvu17g" class="animable" style="transform-origin: 95.5749px 125.58px;"></path><path d="M102.45,144.47a16.48,16.48,0,0,1-15.83,1.26,16.28,16.28,0,0,1-4.89-3.35,13.7,13.7,0,0,1,3-1.18c4.44-1.08,9.33,1.05,11.12,2.05A9.68,9.68,0,0,0,102.45,144.47Z" id="el583ym8bcpr9" class="animable" style="transform-origin: 92.09px 144.043px;"></path><path d="M108.21,137.94c-.06.13-.13.27-.2.4s-.13.24-.2.36c-.15.27-.3.54-.46.79s-.3.47-.46.69l-.18.25-.2.27-.22.27c-.08.11-.17.21-.26.32a3.73,3.73,0,0,1-.26.3l-.23.26-.53.55h0c-1,.32-2.4.18-4.42-.61-3-1.18-6.24-4-12-6.1A20.62,20.62,0,0,0,77.43,135h0a16.43,16.43,0,0,1,.42-10c1.06,0,4.46.44,11.7,6.42a42.36,42.36,0,0,0,7.29,5c6.19,3.25,9.77,2.28,11.26,1.53h.11Z" id="el2h65ualhqyi" class="animable" style="transform-origin: 92.5278px 133.78px;"></path></g></g><g id="elqu0irbjhzs"><g style="opacity: 0.1; transform-origin: 92.5463px 133.891px;" class="animable"><path d="M92.51,144.16c.29-.68,1.32-.87,2.3-.45s1.53,1.32,1.24,2-1.33.87-2.3.45S92.21,144.83,92.51,144.16Z" id="elu3uh6mnt2wi" class="animable" style="transform-origin: 94.2786px 144.935px;"></path><path d="M97.18,143c.17-.38.78-.48,1.37-.22s.92.77.76,1.15-.78.48-1.36.22S97,143.36,97.18,143Z" id="elzeujlhtyjl" class="animable" style="transform-origin: 98.2422px 143.465px;"></path><path d="M84.36,122.68c.26-.57,1.15-.73,2-.36s1.35,1.14,1.1,1.72-1.15.73-2,.36S84.11,123.26,84.36,122.68Z" id="el6agpfhfughf" class="animable" style="transform-origin: 85.91px 123.361px;"></path><path d="M87.41,122.11a.83.83,0,1,1,.49.88A.72.72,0,0,1,87.41,122.11Z" id="el7q7vgfkjowf" class="animable" style="transform-origin: 88.223px 122.229px;"></path><path d="M87.9,123.65c.08-.19.35-.25.61-.13s.4.35.32.53a.46.46,0,0,1-.61.13C88,124.07,87.82,123.83,87.9,123.65Z" id="elryt21u32ims" class="animable" style="transform-origin: 88.3666px 123.851px;"></path><path d="M98.21,123.69a1.22,1.22,0,0,1,1.65-.39,1.06,1.06,0,1,1-.81,1.86A1.23,1.23,0,0,1,98.21,123.69Z" id="el42ymeiqo60e" class="animable" style="transform-origin: 99.4859px 124.271px;"></path><path d="M97.81,125.94a.61.61,0,0,1,.83-.27.62.62,0,0,1,.37.79.63.63,0,0,1-.83.27A.62.62,0,0,1,97.81,125.94Z" id="el6yrm4wx7jgp" class="animable" style="transform-origin: 98.41px 126.197px;"></path></g></g><path d="M251.5,84.18c-.32-.32-17.92-6.58-32.12,6.5-13,12-16.06,32.63-14.15,32.94,2.33.37,7.7-9.82,19.23-16.22,4.08-2.27,11-1,11-1Z" style="fill: rgb(255, 199, 39); transform-origin: 228.105px 103.017px;" id="elh3uwvukacf5" class="animable"></path><g id="elprt303fzqs"><path d="M235.5,106.37a26.5,26.5,0,0,0-6.24-.25c2.13-5.8,6.12-16.6,8.71-23.6a31,31,0,0,1,13.53,1.66Z" style="opacity: 0.1; transform-origin: 240.38px 94.3682px;" class="animable"></path></g><path d="M282.34,114.39c.33.32,7,17.78-5.83,32.25-11.75,13.3-32.29,16.73-32.64,14.83-.43-2.33,9.66-7.91,15.82-19.56,2.18-4.14.79-11.06.79-11.06Z" style="fill: rgb(255, 199, 39); transform-origin: 264.111px 138.172px;" id="elbx926428ksg" class="animable"></path><g id="el0ykrbjswhrto"><path d="M284.27,128l-23.41,9.23a26.93,26.93,0,0,0-.37-6.36l21.85-16.46A31,31,0,0,1,284.27,128Z" style="opacity: 0.1; transform-origin: 272.432px 125.82px;" class="animable"></path></g><path d="M245.09,140,226.81,122s6.45-23.85,25.44-41.22a126.14,126.14,0,0,1,31.28-20.38c14.29-6.67,26.52-9.35,28.65-7.27s-.31,14.36-6.67,28.8a126.33,126.33,0,0,1-19.74,31.68C268.79,133,245.09,140,245.09,140Z" style="fill: rgb(199, 199, 199); transform-origin: 269.872px 96.22px;" id="el66altv7xvzc" class="animable"></path><path d="M282.28,105.58a14.76,14.76,0,1,1-.22-20.87A14.76,14.76,0,0,1,282.28,105.58Z" style="fill: rgb(166, 166, 166); transform-origin: 271.732px 95.255px;" id="el4r96xst9ffb" class="animable"></path><path d="M283,104.14a14.76,14.76,0,1,1-.22-20.87A14.76,14.76,0,0,1,283,104.14Z" style="fill: rgb(255, 199, 39); transform-origin: 272.452px 93.815px;" id="ela9iedkltfrt" class="animable"></path><path d="M279.73,101a10.24,10.24,0,1,1-.16-14.48A10.23,10.23,0,0,1,279.73,101Z" style="fill: rgb(255, 255, 255); transform-origin: 272.411px 93.84px;" id="el72c9ujogyns" class="animable"></path><path d="M279.73,101a10.28,10.28,0,0,1-3.08,2.17l-8.25.09a10.12,10.12,0,0,1-3.14-2.1A10,10,0,0,1,263.57,99l17.81-.2A9.92,9.92,0,0,1,279.73,101Z" style="fill: rgb(235, 235, 235); transform-origin: 272.475px 101.03px;" id="el2l58fnspo3r" class="animable"></path><path d="M280.57,87.63l-16.44.18a9.44,9.44,0,0,1,1-1.15,10.23,10.23,0,0,1,14.48-.16A8.89,8.89,0,0,1,280.57,87.63Z" style="fill: rgb(235, 235, 235); transform-origin: 272.35px 85.6932px;" id="elxvvghjh21jj" class="animable"></path><path d="M282.28,96.53l-19.67.22a8.89,8.89,0,0,1-.22-.89l20.1-.23C282.44,95.93,282.36,96.23,282.28,96.53Z" style="fill: rgb(235, 235, 235); transform-origin: 272.44px 96.19px;" id="el1xgbwqb5squ" class="animable"></path><path d="M305.51,82l-22-21.53c14.29-6.67,26.52-9.35,28.65-7.27S311.87,67.53,305.51,82Z" style="fill: rgb(255, 199, 39); transform-origin: 298.213px 67.255px;" id="el3pn1bqb6gii" class="animable"></path><path d="M289.54,61.88a.87.87,0,0,1-1.22,0,.86.86,0,0,1,1.2-1.23A.87.87,0,0,1,289.54,61.88Z" style="fill: rgb(255, 255, 255); transform-origin: 288.936px 61.2802px;" id="elqfs7l0462z" class="animable"></path><path d="M293.45,65.71a.87.87,0,0,1-1.22,0,.86.86,0,0,1,1.2-1.23A.87.87,0,0,1,293.45,65.71Z" style="fill: rgb(255, 255, 255); transform-origin: 292.846px 65.1103px;" id="el2hxpt108pdd" class="animable"></path><path d="M297.36,69.54a.87.87,0,0,1-1.22,0,.86.86,0,0,1,1.2-1.23A.87.87,0,0,1,297.36,69.54Z" style="fill: rgb(255, 255, 255); transform-origin: 296.756px 68.9403px;" id="el5hrysymuv5q" class="animable"></path><path d="M301.27,73.37a.87.87,0,0,1-1.22,0,.86.86,0,0,1,1.2-1.23A.87.87,0,0,1,301.27,73.37Z" style="fill: rgb(255, 255, 255); transform-origin: 300.666px 72.7703px;" id="ely8qkhd3rxu" class="animable"></path><path d="M305.18,77.2a.87.87,0,0,1-1.22,0,.86.86,0,0,1,1.2-1.23A.87.87,0,0,1,305.18,77.2Z" style="fill: rgb(255, 255, 255); transform-origin: 304.576px 76.6003px;" id="ely20lqezmzpd" class="animable"></path><path d="M231.52,121.14a.86.86,0,0,1-1.22,0,.85.85,0,0,1,0-1.21.86.86,0,1,1,1.23,1.2Z" style="fill: rgb(166, 166, 166); transform-origin: 230.924px 120.519px;" id="elqgf84qr1sg" class="animable"></path><path d="M235.43,125a.86.86,0,0,1-1.22,0,.85.85,0,0,1,0-1.21.86.86,0,1,1,1.23,1.2Z" style="fill: rgb(166, 166, 166); transform-origin: 234.834px 124.379px;" id="elkdx2ribsoz" class="animable"></path><path d="M239.34,128.8a.87.87,0,0,1-1.22,0,.86.86,0,0,1,0-1.22.87.87,0,0,1,1.22,0A.88.88,0,0,1,239.34,128.8Z" style="fill: rgb(166, 166, 166); transform-origin: 238.726px 128.19px;" id="elukrz11kyxis" class="animable"></path><path d="M243.25,132.63a.86.86,0,0,1-1.22,0,.85.85,0,0,1,0-1.21.86.86,0,1,1,1.23,1.2Z" style="fill: rgb(166, 166, 166); transform-origin: 242.654px 132.009px;" id="elob6kghyztmj" class="animable"></path><path d="M247.16,136.46a.86.86,0,0,1-1.22,0,.85.85,0,0,1,0-1.21.87.87,0,0,1,1.22,0A.88.88,0,0,1,247.16,136.46Z" style="fill: rgb(166, 166, 166); transform-origin: 246.544px 135.857px;" id="elin7sq39alck" class="animable"></path><g id="elgb9mapevb26"><path d="M311.2,52.68c-11.34,1.87-30.45,10.61-49.74,28.85C247.22,95,238,117.13,233.78,128.87l-7-6.83s6.46-23.85,25.45-41.22a126.14,126.14,0,0,1,31.28-20.38C296.34,54.46,307.49,51.69,311.2,52.68Z" style="fill: rgb(255, 255, 255); opacity: 0.2; transform-origin: 268.99px 90.6766px;" class="animable"></path></g><polygon points="238.02 143.8 223.15 129.23 227.84 123.05 244.1 138.98 238.02 143.8" style="fill: rgb(255, 199, 39); transform-origin: 233.625px 133.425px;" id="elva4t4yyk0nr" class="animable"></polygon><g id="elo2i9ssi039"><polygon points="244.1 138.98 241.14 141.33 226.04 125.42 227.84 123.06 244.1 138.98" style="opacity: 0.1; transform-origin: 235.07px 132.195px;" class="animable"></polygon></g><g id="elrnpklhuh8x"><path d="M234.75,140.54a54.27,54.27,0,0,0-14.23,17.38A43,43,0,0,0,215.79,180a39,39,0,0,0,2.46,11.31,40.79,40.79,0,0,0,5.74,10.3,46.69,46.69,0,0,0,8.49,8.54,59.07,59.07,0,0,0,10.41,6.47,59.55,59.55,0,0,1-11.23-5.29,49,49,0,0,1-9.85-7.85,44.21,44.21,0,0,1-11.72-22.76,50.09,50.09,0,0,1,2.52-26.16A64.25,64.25,0,0,1,227,132.11Z" style="fill: rgb(255, 199, 39); opacity: 0.6; transform-origin: 226.131px 174.365px;" class="animable"></path></g><polygon points="225 151.05 222.6 151.73 222.29 154.36 221.51 151.83 219.02 151.61 221.4 150.79 221.73 148.3 222.52 150.68 225 151.05" style="fill: rgb(255, 255, 255); transform-origin: 222.01px 151.33px;" id="elsrsakcf7kn" class="animable"></polygon><polygon points="220.49 200.14 219.14 200.52 218.97 201.99 218.53 200.58 217.14 200.45 218.47 199.99 218.66 198.6 219.09 199.93 220.49 200.14" style="fill: rgb(255, 255, 255); transform-origin: 218.815px 200.295px;" id="elrlqwjqsqpg" class="animable"></polygon><polygon points="218.59 187.71 217.25 188.09 217.08 189.56 216.64 188.14 215.25 188.02 216.58 187.56 216.76 186.17 217.2 187.5 218.59 187.71" style="fill: rgb(255, 255, 255); transform-origin: 216.92px 187.865px;" id="elsmwvgu6yris" class="animable"></polygon><polygon points="222.45 143.19 221.11 143.57 220.94 145.04 220.5 143.63 219.11 143.5 220.44 143.04 220.63 141.65 221.06 142.98 222.45 143.19" style="fill: rgb(255, 255, 255); transform-origin: 220.78px 143.345px;" id="eleakz9h814k6" class="animable"></polygon><path d="M224,203a.4.4,0,0,0,.07.8A.4.4,0,0,0,224,203Z" style="fill: rgb(255, 255, 255); transform-origin: 224.035px 203.4px;" id="el83wi0eczx9l" class="animable"></path><path d="M229.62,140.58a.4.4,0,0,0,.07.79A.4.4,0,0,0,229.62,140.58Z" style="fill: rgb(255, 255, 255); transform-origin: 229.655px 140.975px;" id="elvjyzgfa0p1" class="animable"></path><path d="M211.57,177.87a.4.4,0,0,0,.08.8A.4.4,0,0,0,211.57,177.87Z" style="fill: rgb(255, 255, 255); transform-origin: 211.61px 178.27px;" id="ela1az94pw55f" class="animable"></path><path d="M223.11,201a.28.28,0,0,0,0,.56A.28.28,0,0,0,223.11,201Z" style="fill: rgb(255, 255, 255); transform-origin: 223.11px 201.28px;" id="eleuc9f7bgjts" class="animable"></path><path d="M210.15,164.05a.28.28,0,0,0,0,.56A.28.28,0,0,0,210.15,164.05Z" style="fill: rgb(255, 255, 255); transform-origin: 210.15px 164.33px;" id="elufmrpk045j" class="animable"></path><path d="M215.66,192.44a.76.76,0,0,0,.14,1.52A.76.76,0,0,0,215.66,192.44Z" style="fill: rgb(255, 255, 255); transform-origin: 215.73px 193.2px;" id="eld6omfytzenb" class="animable"></path><path d="M213.5,161.14a.76.76,0,0,0,.14,1.52A.76.76,0,0,0,213.5,161.14Z" style="fill: rgb(255, 255, 255); transform-origin: 213.57px 161.9px;" id="elrxn3tslh0e" class="animable"></path><polygon points="368.93 300.9 373.72 301.79 374.79 306.84 375.87 301.79 380.66 300.9 375.88 299.73 374.79 294.96 373.7 299.73 368.93 300.9" style="fill: rgb(255, 255, 255); transform-origin: 374.795px 300.9px;" id="els1f9z52rcb" class="animable"></polygon><polygon points="401.07 142.62 405.86 143.5 406.93 148.55 408 143.5 412.79 142.62 408.02 141.45 406.93 136.68 405.84 141.45 401.07 142.62" style="fill: rgb(255, 255, 255); transform-origin: 406.93px 142.615px;" id="el3xlx0i9z3tc" class="animable"></polygon><polygon points="63.4 165.33 68.19 166.22 69.27 171.27 70.34 166.22 75.13 165.33 70.36 164.16 69.27 159.39 68.17 164.16 63.4 165.33" style="fill: rgb(255, 255, 255); transform-origin: 69.265px 165.33px;" id="elqyyey97285m" class="animable"></polygon><polygon points="320 156 324.79 156.89 325.86 161.94 326.93 156.89 331.72 156 326.95 154.83 325.86 150.06 324.77 154.83 320 156" style="fill: rgb(255, 255, 255); transform-origin: 325.86px 156px;" id="elh01r7z7hufv" class="animable"></polygon><polygon points="430.75 241.1 433.43 241.59 434.03 244.41 434.63 241.59 437.3 241.1 434.64 240.44 434.03 237.78 433.42 240.44 430.75 241.1" style="fill: rgb(255, 255, 255); transform-origin: 434.025px 241.095px;" id="elnz5ks7dpaii" class="animable"></polygon><polygon points="417.14 159.39 419.82 159.89 420.42 162.71 421.02 159.89 423.69 159.39 421.03 158.74 420.42 156.07 419.81 158.74 417.14 159.39" style="fill: rgb(255, 255, 255); transform-origin: 420.415px 159.39px;" id="el8yfr3nh3hwr" class="animable"></polygon><polygon points="89.25 175.54 91.93 176.03 92.53 178.85 93.13 176.03 95.81 175.53 93.14 174.88 92.53 172.22 91.92 174.88 89.25 175.54" style="fill: rgb(255, 255, 255); transform-origin: 92.53px 175.535px;" id="elbs0uyne3n1j" class="animable"></polygon><polygon points="369.54 197.5 372.22 197.99 372.82 200.82 373.42 197.99 376.1 197.5 373.43 196.85 372.82 194.18 372.21 196.85 369.54 197.5" style="fill: rgb(255, 255, 255); transform-origin: 372.82px 197.5px;" id="el6uyf1zg08l" class="animable"></polygon><polygon points="266.67 197.73 269.35 198.22 269.95 201.05 270.55 198.22 273.23 197.73 270.56 197.07 269.95 194.41 269.34 197.07 266.67 197.73" style="fill: rgb(255, 255, 255); transform-origin: 269.95px 197.73px;" id="el2k48jf7yayl" class="animable"></polygon><polygon points="187.2 80.17 189.88 80.66 190.47 83.49 191.07 80.66 193.75 80.17 191.08 79.52 190.47 76.85 189.87 79.52 187.2 80.17" style="fill: rgb(255, 255, 255); transform-origin: 190.475px 80.17px;" id="eli09q4edya0f" class="animable"></polygon><polygon points="363.22 316.43 365.9 316.93 366.5 319.75 367.09 316.93 369.77 316.43 367.11 315.78 366.5 313.11 365.88 315.78 363.22 316.43" style="fill: rgb(255, 255, 255); transform-origin: 366.495px 316.43px;" id="elcfbnf97c0w" class="animable"></polygon><path d="M287.77,162.3a.78.78,0,0,1,0,1.56A.78.78,0,0,1,287.77,162.3Z" style="fill: rgb(255, 255, 255); transform-origin: 287.77px 163.08px;" id="ellwpe4j1xkae" class="animable"></path><path d="M277.17,240.87a.78.78,0,0,1,0,1.55A.78.78,0,0,1,277.17,240.87Z" style="fill: rgb(255, 255, 255); transform-origin: 277.17px 241.645px;" id="el2eq6c3l5pqt" class="animable"></path><path d="M376.1,222.06a.78.78,0,0,1,0,1.55A.78.78,0,0,1,376.1,222.06Z" style="fill: rgb(255, 255, 255); transform-origin: 376.1px 222.835px;" id="elxflcen11efq" class="animable"></path><path d="M380.33,249.28a.78.78,0,0,1,0,1.55A.78.78,0,0,1,380.33,249.28Z" style="fill: rgb(255, 255, 255); transform-origin: 380.33px 250.055px;" id="elrr5c4mipr9" class="animable"></path><path d="M189.29,94.13a.55.55,0,0,1,0,1.1A.55.55,0,0,1,189.29,94.13Z" style="fill: rgb(255, 255, 255); transform-origin: 189.29px 94.68px;" id="elcfeqh8ja6ca" class="animable"></path><path d="M362.68,201.06a.55.55,0,0,1,0,1.1A.55.55,0,0,1,362.68,201.06Z" style="fill: rgb(255, 255, 255); transform-origin: 362.68px 201.61px;" id="elpchnufr8cxn" class="animable"></path><path d="M226.46,241.1a.55.55,0,0,1,0,1.09A.55.55,0,0,1,226.46,241.1Z" style="fill: rgb(255, 255, 255); transform-origin: 226.46px 241.645px;" id="elhq3tnhdicuv" class="animable"></path><path d="M256.54,236.71a.55.55,0,0,1,0,1.1A.55.55,0,0,1,256.54,236.71Z" style="fill: rgb(255, 255, 255); transform-origin: 256.54px 237.26px;" id="elhgtj3u9fgoj" class="animable"></path><path d="M311.46,147.07a1.49,1.49,0,0,1,0,3A1.49,1.49,0,0,1,311.46,147.07Z" style="fill: rgb(255, 255, 255); transform-origin: 311.46px 148.57px;" id="el8e5ib6kgptx" class="animable"></path><polygon points="294.79 111.91 299.58 112.8 300.65 117.85 301.72 112.8 306.51 111.91 301.74 110.74 300.65 105.97 299.56 110.74 294.79 111.91" style="fill: rgb(255, 255, 255); transform-origin: 300.65px 111.91px;" id="elgk6xie3zmaw" class="animable"></polygon><polygon points="249.98 58.1 252.66 58.6 253.26 61.42 253.86 58.6 256.54 58.1 253.87 57.45 253.26 54.78 252.65 57.45 249.98 58.1" style="fill: rgb(255, 255, 255); transform-origin: 253.26px 58.1px;" id="elq2aqbvu6b8" class="animable"></polygon><path d="M87.66,130.56a.78.78,0,0,1,0,1.55A.78.78,0,0,1,87.66,130.56Z" style="fill: rgb(255, 255, 255); transform-origin: 87.66px 131.335px;" id="elluzpu5cha7" class="animable"></path><path d="M118.58,195.63a.78.78,0,0,1,0,1.55A.78.78,0,0,1,118.58,195.63Z" style="fill: rgb(255, 255, 255); transform-origin: 118.58px 196.405px;" id="elmvhsmik9szq" class="animable"></path><path d="M437.85,173.48a.78.78,0,0,1,0,1.55A.78.78,0,0,1,437.85,173.48Z" style="fill: rgb(255, 255, 255); transform-origin: 437.85px 174.255px;" id="elndrir7enr8" class="animable"></path><path d="M346.67,118.58a.55.55,0,0,1,0,1.1A.55.55,0,0,1,346.67,118.58Z" style="fill: rgb(255, 255, 255); transform-origin: 346.67px 119.13px;" id="elmzcp3g5d5vf" class="animable"></path><path d="M201.63,130.1a.55.55,0,0,1,0,1.1A.55.55,0,0,1,201.63,130.1Z" style="fill: rgb(255, 255, 255); transform-origin: 201.63px 130.65px;" id="elnc49r173l9b" class="animable"></path><path d="M247.48,85a.55.55,0,0,1,0,1.09A.55.55,0,0,1,247.48,85Z" style="fill: rgb(255, 255, 255); transform-origin: 247.48px 85.545px;" id="eletxs5rslqt" class="animable"></path><path d="M214.55,216.26a1.49,1.49,0,0,1,0,3A1.49,1.49,0,0,1,214.55,216.26Z" style="fill: rgb(255, 255, 255); transform-origin: 214.55px 217.76px;" id="elas7tyvi5pk5" class="animable"></path><path d="M404.14,185a1.49,1.49,0,0,1,0,3A1.49,1.49,0,0,1,404.14,185Z" style="fill: rgb(255, 255, 255); transform-origin: 404.14px 186.5px;" id="elhr2fexn6yko" class="animable"></path><polygon points="149.56 125.61 152.24 126.1 152.83 128.93 153.43 126.1 156.11 125.61 153.44 124.95 152.83 122.29 152.22 124.95 149.56 125.61" style="fill: rgb(255, 255, 255); transform-origin: 152.835px 125.61px;" id="el2pjwmekdpkl" class="animable"></polygon><polygon points="184.56 170.74 188.43 171.37 189.29 174.98 190.16 171.37 194.03 170.74 190.17 169.9 189.29 166.5 188.41 169.9 184.56 170.74" style="fill: rgb(255, 255, 255); transform-origin: 189.295px 170.74px;" id="elkuaubxdf0sf" class="animable"></polygon><path d="M320.8,329a.78.78,0,0,1,0,1.56A.78.78,0,0,1,320.8,329Z" style="fill: rgb(255, 255, 255); transform-origin: 320.8px 329.78px;" id="elvqq71cxp2lg" class="animable"></path><path d="M429.45,200.06a.78.78,0,0,1,0,1.55A.78.78,0,0,1,429.45,200.06Z" style="fill: rgb(255, 255, 255); transform-origin: 429.45px 200.835px;" id="elhrireyhtxwp" class="animable"></path><path d="M344.54,105.93a.78.78,0,0,1,0,1.55A.78.78,0,0,1,344.54,105.93Z" style="fill: rgb(255, 255, 255); transform-origin: 344.54px 106.705px;" id="elemqkcaibtd" class="animable"></path><path d="M263.26,185.28a.78.78,0,0,1,0,1.55A.78.78,0,0,1,263.26,185.28Z" style="fill: rgb(255, 255, 255); transform-origin: 263.26px 186.055px;" id="el7t0csbdlf7f" class="animable"></path><path d="M363.21,322.73a.55.55,0,0,1,0,1.09A.55.55,0,0,1,363.21,322.73Z" style="fill: rgb(255, 255, 255); transform-origin: 363.21px 323.275px;" id="eltgimasj1cp7" class="animable"></path><polygon points="129.56 229.37 132.24 229.86 132.84 232.69 133.43 229.86 136.11 229.37 133.44 228.72 132.84 226.05 132.23 228.72 129.56 229.37" style="fill: rgb(255, 255, 255); transform-origin: 132.835px 229.37px;" id="elmz3m90vrkwt" class="animable"></polygon><path d="M205.68,214.91a.78.78,0,0,1,0,1.56A.78.78,0,0,1,205.68,214.91Z" style="fill: rgb(255, 255, 255); transform-origin: 205.68px 215.69px;" id="el3p1wyw1rare" class="animable"></path><path d="M114.72,136.5a.55.55,0,0,1,0,1.1A.55.55,0,0,1,114.72,136.5Z" style="fill: rgb(255, 255, 255); transform-origin: 114.72px 137.05px;" id="el0dmpvdg8cp2k" class="animable"></path><path d="M107.69,131.45a1.49,1.49,0,0,1,0,3A1.49,1.49,0,0,1,107.69,131.45Z" style="fill: rgb(255, 255, 255); transform-origin: 107.69px 132.95px;" id="eluylqsvixiyb" class="animable"></path><path d="M250.25,187.32a1.49,1.49,0,0,1,0,3A1.49,1.49,0,0,1,250.25,187.32Z" style="fill: rgb(255, 255, 255); transform-origin: 250.25px 188.82px;" id="eli73yv983ax" class="animable"></path><path d="M170.86,118.29a1.49,1.49,0,0,1,0,3A1.49,1.49,0,0,1,170.86,118.29Z" style="fill: rgb(255, 255, 255); transform-origin: 170.86px 119.79px;" id="ely1vxg86whbf" class="animable"></path><g id="elghfludf2b8k"><rect x="413.34" y="191.16" width="1" height="36.12" style="fill: rgb(255, 255, 255); transform-origin: 413.84px 209.22px; transform: rotate(-45deg);" class="animable"></rect></g><g id="elmtdlnrqscis"><rect x="263.17" y="157.49" width="1" height="16.34" style="fill: rgb(255, 255, 255); transform-origin: 263.67px 165.66px; transform: rotate(-43.21deg);" class="animable"></rect></g><g id="ela1x351t5rhe"><rect x="348.78" y="269.46" width="23.1" height="1" style="fill: rgb(255, 255, 255); transform-origin: 360.33px 269.96px; transform: rotate(-38.82deg);" class="animable"></rect></g><rect x="429.45" y="224.83" width="4.84" height="1.72" style="fill: rgb(255, 255, 255); transform-origin: 431.87px 225.69px;" id="elozaqe95d24" class="animable"></rect><rect x="434.5" y="230.31" width="4.84" height="1.72" style="fill: rgb(255, 255, 255); transform-origin: 436.92px 231.17px;" id="elw3we853bp8" class="animable"></rect><rect x="436.05" y="224.83" width="9.18" height="1.72" style="fill: rgb(255, 255, 255); transform-origin: 440.64px 225.69px;" id="elx1sdp2sfrb" class="animable"></rect><rect x="446.92" y="224.83" width="1.54" height="1.72" style="fill: rgb(255, 255, 255); transform-origin: 447.69px 225.69px;" id="el73r2ad51c9m" class="animable"></rect><rect x="449.39" y="224.83" width="1.54" height="1.72" style="fill: rgb(255, 255, 255); transform-origin: 450.16px 225.69px;" id="elzodvnftb05" class="animable"></rect><rect x="451.85" y="224.83" width="1.54" height="1.72" style="fill: rgb(255, 255, 255); transform-origin: 452.62px 225.69px;" id="elx6yhqccdmwd" class="animable"></rect><rect x="429.45" y="227.54" width="9.18" height="1.72" style="fill: rgb(255, 255, 255); transform-origin: 434.04px 228.4px;" id="elesbkeirs6z9" class="animable"></rect><rect x="440.32" y="227.54" width="1.54" height="1.72" style="fill: rgb(255, 255, 255); transform-origin: 441.09px 228.4px;" id="elzc27pgi56qe" class="animable"></rect><rect x="442.79" y="227.54" width="1.54" height="1.72" style="fill: rgb(255, 255, 255); transform-origin: 443.56px 228.4px;" id="eliawp5ocvao" class="animable"></rect><rect x="445.25" y="227.54" width="1.54" height="1.72" style="fill: rgb(255, 255, 255); transform-origin: 446.02px 228.4px;" id="elugsnjl85ysc" class="animable"></rect><rect x="429.45" y="230.31" width="1.54" height="1.72" style="fill: rgb(255, 255, 255); transform-origin: 430.22px 231.17px;" id="el9y8693jad3" class="animable"></rect><rect x="431.92" y="230.31" width="1.54" height="1.72" style="fill: rgb(255, 255, 255); transform-origin: 432.69px 231.17px;" id="ellyymmhngbf" class="animable"></rect><rect x="372.86" y="256.18" width="4.84" height="1.72" style="fill: rgb(255, 255, 255); transform-origin: 375.28px 257.04px;" id="elvbgsp8bo5dg" class="animable"></rect><rect x="377.91" y="261.66" width="4.84" height="1.72" style="fill: rgb(255, 255, 255); transform-origin: 380.33px 262.52px;" id="elciqj2r3ubab" class="animable"></rect><rect x="379.46" y="256.18" width="9.18" height="1.72" style="fill: rgb(255, 255, 255); transform-origin: 384.05px 257.04px;" id="el7advvlcno2y" class="animable"></rect><rect x="390.33" y="256.18" width="1.54" height="1.72" style="fill: rgb(255, 255, 255); transform-origin: 391.1px 257.04px;" id="elr5me5h2q96" class="animable"></rect><rect x="392.8" y="256.18" width="1.54" height="1.72" style="fill: rgb(255, 255, 255); transform-origin: 393.57px 257.04px;" id="el5rf45txn8uh" class="animable"></rect><rect x="395.26" y="256.18" width="1.54" height="1.72" style="fill: rgb(255, 255, 255); transform-origin: 396.03px 257.04px;" id="elteobc975q5i" class="animable"></rect><rect x="372.86" y="258.9" width="9.18" height="1.72" style="fill: rgb(255, 255, 255); transform-origin: 377.45px 259.76px;" id="ellx9i5zdt5jm" class="animable"></rect><rect x="383.73" y="258.9" width="1.54" height="1.72" style="fill: rgb(255, 255, 255); transform-origin: 384.5px 259.76px;" id="eld5ng61p6ez" class="animable"></rect><rect x="386.19" y="258.9" width="1.54" height="1.72" style="fill: rgb(255, 255, 255); transform-origin: 386.96px 259.76px;" id="elz6a2lr2irwo" class="animable"></rect><rect x="388.66" y="258.9" width="1.54" height="1.72" style="fill: rgb(255, 255, 255); transform-origin: 389.43px 259.76px;" id="elgh1pfsl28x" class="animable"></rect><rect x="372.86" y="261.66" width="1.54" height="1.72" style="fill: rgb(255, 255, 255); transform-origin: 373.63px 262.52px;" id="elqwj0rh2ipx" class="animable"></rect><rect x="375.32" y="261.66" width="1.54" height="1.72" style="fill: rgb(255, 255, 255); transform-origin: 376.09px 262.52px;" id="elizf5u3cyi2b" class="animable"></rect><g id="el7nipqwsmvvp"><rect x="105.62" y="112.78" width="23.1" height="1" style="fill: rgb(255, 255, 255); transform-origin: 117.17px 113.28px; transform: rotate(-38.77deg);" class="animable"></rect></g><rect x="129.69" y="99.51" width="4.84" height="1.72" style="fill: rgb(255, 255, 255); transform-origin: 132.11px 100.37px;" id="elsxu0rxwvenf" class="animable"></rect><rect x="134.74" y="104.98" width="4.84" height="1.72" style="fill: rgb(255, 255, 255); transform-origin: 137.16px 105.84px;" id="elhwy2n1u2k6b" class="animable"></rect><rect x="136.29" y="99.51" width="9.18" height="1.72" style="fill: rgb(255, 255, 255); transform-origin: 140.88px 100.37px;" id="elxwbx8ubm8xo" class="animable"></rect><rect x="147.16" y="99.51" width="1.54" height="1.72" style="fill: rgb(255, 255, 255); transform-origin: 147.93px 100.37px;" id="eleu0xkxgfz3v" class="animable"></rect><rect x="149.63" y="99.51" width="1.54" height="1.72" style="fill: rgb(255, 255, 255); transform-origin: 150.4px 100.37px;" id="elz4kty36222g" class="animable"></rect><rect x="152.09" y="99.51" width="1.54" height="1.72" style="fill: rgb(255, 255, 255); transform-origin: 152.86px 100.37px;" id="el4rgacsq3l7u" class="animable"></rect><rect x="129.69" y="102.22" width="9.18" height="1.72" style="fill: rgb(255, 255, 255); transform-origin: 134.28px 103.08px;" id="eld0b0ftqjaha" class="animable"></rect><rect x="140.56" y="102.22" width="1.54" height="1.72" style="fill: rgb(255, 255, 255); transform-origin: 141.33px 103.08px;" id="elvmm5o422b8d" class="animable"></rect><rect x="143.02" y="102.22" width="1.54" height="1.72" style="fill: rgb(255, 255, 255); transform-origin: 143.79px 103.08px;" id="elm9ny1kaqe6p" class="animable"></rect><rect x="145.49" y="102.22" width="1.54" height="1.72" style="fill: rgb(255, 255, 255); transform-origin: 146.26px 103.08px;" id="elzn6dyjyaoc" class="animable"></rect><rect x="129.69" y="104.98" width="1.54" height="1.72" style="fill: rgb(255, 255, 255); transform-origin: 130.46px 105.84px;" id="ellytprrlz22l" class="animable"></rect><rect x="132.15" y="104.98" width="1.54" height="1.72" style="fill: rgb(255, 255, 255); transform-origin: 132.92px 105.84px;" id="elieqab4ybuv" class="animable"></rect><rect x="269.75" y="173.49" width="4.84" height="1.72" style="fill: rgb(255, 255, 255); transform-origin: 272.17px 174.35px;" id="elvg7cixrlm08" class="animable"></rect><rect x="274.79" y="178.97" width="4.84" height="1.72" style="fill: rgb(255, 255, 255); transform-origin: 277.21px 179.83px;" id="elzpjf8gqhqf" class="animable"></rect><rect x="276.35" y="173.49" width="9.18" height="1.72" style="fill: rgb(255, 255, 255); transform-origin: 280.94px 174.35px;" id="elt9uwn6zs0s" class="animable"></rect><rect x="287.22" y="173.49" width="1.54" height="1.72" style="fill: rgb(255, 255, 255); transform-origin: 287.99px 174.35px;" id="el5rdciuutx8r" class="animable"></rect><rect x="289.68" y="173.49" width="1.54" height="1.72" style="fill: rgb(255, 255, 255); transform-origin: 290.45px 174.35px;" id="elq4pzqb98dni" class="animable"></rect><rect x="292.15" y="173.49" width="1.54" height="1.72" style="fill: rgb(255, 255, 255); transform-origin: 292.92px 174.35px;" id="elve16gmpvkgj" class="animable"></rect><rect x="269.75" y="176.2" width="9.18" height="1.72" style="fill: rgb(255, 255, 255); transform-origin: 274.34px 177.06px;" id="elcz6z5mizs06" class="animable"></rect><rect x="280.62" y="176.2" width="1.54" height="1.72" style="fill: rgb(255, 255, 255); transform-origin: 281.39px 177.06px;" id="elwmvt8t7fm2" class="animable"></rect><rect x="283.08" y="176.2" width="1.54" height="1.72" style="fill: rgb(255, 255, 255); transform-origin: 283.85px 177.06px;" id="elarwwf36ivds" class="animable"></rect><rect x="285.54" y="176.2" width="1.54" height="1.72" style="fill: rgb(255, 255, 255); transform-origin: 286.31px 177.06px;" id="elwue06wk8zc7" class="animable"></rect><rect x="269.75" y="178.97" width="1.54" height="1.72" style="fill: rgb(255, 255, 255); transform-origin: 270.52px 179.83px;" id="elvd2lhpvmd4" class="animable"></rect><rect x="272.21" y="178.97" width="1.54" height="1.72" style="fill: rgb(255, 255, 255); transform-origin: 272.98px 179.83px;" id="eljlpehxupaat" class="animable"></rect></g><g id="freepik--Character--inject-70" class="animable animator-active" style="transform-origin: 201.715px 290.7px;"><path d="M350.57,166.5a30.76,30.76,0,0,1-2.23,12c-2.38,6.25-8.67,11-14.44,5.34-7.84-8.24-7.84-26.43,0-34.67,5.77-5.68,12.06-.92,14.44,5.34a30.81,30.81,0,0,1,2.23,12Zm0,0a30.76,30.76,0,0,0-2.36-11.95c-2.35-5.82-8.53-10.51-13.82-4.9-7.2,8.1-7.2,25.59,0,33.7,5.29,5.59,11.46.92,13.82-4.91a30.68,30.68,0,0,0,2.36-11.94Z" style="fill: rgb(255, 199, 39); transform-origin: 339.297px 166.5px;" id="el9fjcxhnpoah" class="animable"></path><path d="M323.68,166.5c-.11-9.89,3.81-27.67,15.88-28.56,12.28.7,16.42,18.51,16.37,28.56s-4.06,27.82-16.37,28.55c-12.07-.89-16-18.67-15.88-28.55Zm0,0c.17,8.66,2,18.08,8.19,24.53,8.07,7.9,16.45,1.18,19.86-7.45a47.21,47.21,0,0,0,0-34.17c-3.39-8.62-11.79-15.36-19.86-7.45-6.18,6.46-8,15.87-8.19,24.54Z" style="fill: rgb(255, 199, 39); transform-origin: 339.804px 166.495px;" id="el8pq8z8bx8gr" class="animable"></path><path d="M366.72,166.5c0,16-4.67,38.45-19.79,46.82-7.06,3.84-15.68,1.22-21-4.42-10.63-11.18-13.85-27.45-14.08-42.4.23-15,3.45-31.23,14.08-42.42,5.28-5.63,13.9-8.26,21-4.41C362,128,366.69,150.51,366.72,166.5Zm0,0c-.23-14.84-3.41-31-13.93-42.06-7.84-8.12-18.59-8.09-26.33.13-10.29,11.15-13.42,27.16-13.57,41.93.15,14.76,3.28,30.77,13.56,41.92,7.74,8.21,18.49,8.26,26.34.13,10.52-11.08,13.7-27.21,13.93-42.05Z" style="fill: rgb(255, 199, 39); transform-origin: 339.285px 166.493px;" id="eljuquyduhlwj" class="animable"></path><g id="elolvwcjilumf"><g style="opacity: 0.6; transform-origin: 339.285px 166.493px;" class="animable"><path d="M350.57,166.5a30.76,30.76,0,0,1-2.23,12c-2.38,6.25-8.67,11-14.44,5.34-7.84-8.24-7.84-26.43,0-34.67,5.77-5.68,12.06-.92,14.44,5.34a30.81,30.81,0,0,1,2.23,12Zm0,0a30.76,30.76,0,0,0-2.36-11.95c-2.35-5.82-8.53-10.51-13.82-4.9-7.2,8.1-7.2,25.59,0,33.7,5.29,5.59,11.46.92,13.82-4.91a30.68,30.68,0,0,0,2.36-11.94Z" style="fill: rgb(255, 255, 255); transform-origin: 339.297px 166.5px;" id="elyencxpsf09j" class="animable"></path><path d="M323.68,166.5c-.11-9.89,3.81-27.67,15.88-28.56,12.28.7,16.42,18.51,16.37,28.56s-4.06,27.82-16.37,28.55c-12.07-.89-16-18.67-15.88-28.55Zm0,0c.17,8.66,2,18.08,8.19,24.53,8.07,7.9,16.45,1.18,19.86-7.45a47.21,47.21,0,0,0,0-34.17c-3.39-8.62-11.79-15.36-19.86-7.45-6.18,6.46-8,15.87-8.19,24.54Z" style="fill: rgb(255, 255, 255); transform-origin: 339.804px 166.495px;" id="elm7j291bt9l" class="animable"></path><path d="M366.72,166.5c0,16-4.67,38.45-19.79,46.82-7.06,3.84-15.68,1.22-21-4.42-10.63-11.18-13.85-27.45-14.08-42.4.23-15,3.45-31.23,14.08-42.42,5.28-5.63,13.9-8.26,21-4.41C362,128,366.69,150.51,366.72,166.5Zm0,0c-.23-14.84-3.41-31-13.93-42.06-7.84-8.12-18.59-8.09-26.33.13-10.29,11.15-13.42,27.16-13.57,41.93.15,14.76,3.28,30.77,13.56,41.92,7.74,8.21,18.49,8.26,26.34.13,10.52-11.08,13.7-27.21,13.93-42.05Z" style="fill: rgb(255, 255, 255); transform-origin: 339.285px 166.493px;" id="elkupeix023nb" class="animable"></path></g></g><path d="M207.52,463.51H84.92c0-.24,0-.49,0-.73C86,442.64,86.76,428.12,87,423c0-.29,0-.54,0-.77a1.55,1.55,0,0,1,0-.22l.06-1H197.5S203,442.84,207.52,463.51Z" style="fill: rgb(55, 71, 79); transform-origin: 146.22px 442.26px;" id="eln1xx2zrgntq" class="animable"></path><path d="M193.18,463.51h-5A29.48,29.48,0,0,1,184,460c-3-3.07-5.1-7.4-6.82-12.21-.6-1.68-2.14-6.68-3.22-10.37-.56-1.93-1-3.5-1.09-4.06-.06-.29.27-.45.4-.17,0,0,.38,1,.91,2.37,1.38,3.6,3.91,10.18,4.6,11.77,1.81,4.16,3.78,7.86,6.54,10.52A35,35,0,0,0,193.18,463.51Z" style="fill: rgb(38, 50, 56); transform-origin: 183.021px 448.277px;" id="elhjhcba4vbqi" class="animable"></path><polygon points="105.32 426.34 104.65 443.88 104.44 449.49 103.91 463.51 103.12 463.51 103.88 450.64 104.24 444.65 105.32 426.34" style="fill: rgb(38, 50, 56); transform-origin: 104.22px 444.925px;" id="eluy9jyey7pw9" class="animable"></polygon><path d="M148.59,463.51H84.92l0-.73C86,442.65,86.74,428.13,87,423c0-.29,0-.54,0-.77a1.55,1.55,0,0,1,0-.22c0-.62,0-1,0-1h55Z" style="fill: rgb(38, 50, 56); transform-origin: 116.755px 442.26px;" id="elljadpevtye" class="animable"></path><path d="M175.53,421s-.35,5.71-1.36,14.57c-.07.6-.14,1.22-.22,1.86-.85,7.28-2.13,16.4-4,26.12H36.71c6.12-22.46,14-42.55,14-42.55Z" style="fill: rgb(55, 71, 79); transform-origin: 106.12px 442.275px;" id="eljwbbtav6sze" class="animable"></path><path d="M109.81,435.67c-.32,1.55-4,10.78-5.37,13.82l-.19.41-.37.74c-2.25,4.42-5.13,8.33-9.4,11a36,36,0,0,1-3.32,1.86H82.93c.68-.22,1.35-.47,2-.73h0a47.65,47.65,0,0,0,7.21-3.43c4.17-2.45,7-6,9.48-10.06.45-.73,1.46-2.55,2.59-4.64l.41-.77c2.1-3.91,4.46-8.38,4.49-8.43C109.32,435.18,109.87,435.38,109.81,435.67Z" style="fill: rgb(38, 50, 56); transform-origin: 96.3723px 449.41px;" id="elt2gl7nfn01s" class="animable"></path><path d="M150.74,431.28a163,163,0,0,1,.23,32.23h-2.15c1-10.7,1.25-21.45,1.34-32.21A.29.29,0,0,1,150.74,431.28Z" style="fill: rgb(38, 50, 56); transform-origin: 150.239px 447.255px;" id="eldsrnrlvugq" class="animable"></path><path d="M165.87,463.51h-2.21c1.05-10.78,1.86-21,1.88-32.62,0-.38.62-.3.64.05A192.74,192.74,0,0,1,165.87,463.51Z" style="fill: rgb(38, 50, 56); transform-origin: 165.191px 447.075px;" id="elivdwiesnmp" class="animable"></path><path d="M60.07,421c-3.13,12-6.09,24-8.79,36q-.72,3.25-1.43,6.52H49.1c.51-2.22,1-4.44,1.57-6.66C53.57,444.83,56.73,432.87,60.07,421Z" style="fill: rgb(38, 50, 56); transform-origin: 54.585px 442.26px;" id="el4qu52lff2ya" class="animable"></path><path d="M173.68,225.47c4.26,10.87,10.33,20.76,13.73,32,3.1,10.33,4.5,21.36,2.86,32.11-6.05,39.45-57.43,63.12-93.52,50.87-17.26-5.87-32.28-19.87-36.86-37.83-5.61-22,6.14-43.16,13.27-63.26a102.82,102.82,0,0,0,5.79-35c0-10.44-.63-21.07,1.49-31.38,1.51-7.35,6.53-28.73,33.61-37.27,19.45-6.13,39.14,4.49,48.2,23C172.79,180.15,165.27,203.89,173.68,225.47Z" style="fill: rgb(38, 50, 56); transform-origin: 124.691px 238.83px;" id="elify8qtgqfyg" class="animable"></path><path d="M81,228.68c-8.4,18-19.44,36.38-22.67,56.24C55.68,301.39,60.12,319.2,74.45,329a.12.12,0,0,0,.14-.19C59.54,317.15,57.67,297,61.89,279.65c4.33-17.77,14.73-33.23,20-50.61A.46.46,0,0,0,81,228.68Z" style="fill: rgb(38, 50, 56); transform-origin: 69.7645px 278.697px;" id="el8l7kwmuu8q2" class="animable"></path><path d="M77.23,227.63c-6.36,23.61-25.79,42.2-27,67.32,0,.3.45.37.47.07,1.64-25.08,23.24-42.89,27-67.32C77.74,227.4,77.31,227.35,77.23,227.63Z" style="fill: rgb(38, 50, 56); transform-origin: 63.9663px 261.329px;" id="elgo7twtq6tgi" class="animable"></path><path d="M175,225.08a81.69,81.69,0,0,1-7.38-27.75c0-.5-.86-.54-.9,0C164.49,232,204.19,258,193.62,293.78c-.07.25.3.42.39.17,5.07-14.79,1.13-29.58-5.51-43.21C184.27,242.05,179.13,233.83,175,225.08Z" style="fill: rgb(38, 50, 56); transform-origin: 181.473px 245.506px;" id="elv9neif5kswh" class="animable"></path><path d="M167,192.17c-.09-.66-1-.46-1,.17a77.56,77.56,0,0,0,12.18,36.43c3.45,5.4,7.68,10.23,11,15.7,3.66,6,6.47,12.43,9.55,18.72a.14.14,0,0,0,.25-.11c-4-11.94-10.26-21.44-17.42-31.6C173.24,219.64,168.84,206.47,167,192.17Z" style="fill: rgb(38, 50, 56); transform-origin: 182.491px 227.504px;" id="elyetw3swzjyg" class="animable"></path><path d="M138.57,288.53C177.09,331.44,245.67,370.62,266,357c22-14.73,42.51-52.06,52.32-70.55,4.41-8.31-41.87-47.56-48-39.61-5,6.42-32.88,46.74-34.39,46.3-4.73-1.4-39.77-13-84.92-30.33C124.62,252.68,113.07,260.12,138.57,288.53Z" style="fill: rgb(211, 118, 106); transform-origin: 221.47px 302.767px;" id="elj7pdm0l6u4g" class="animable"></path><path d="M250,334.17c-4-6-13.71-23.19-13.63-41.2,0-.2.23-.23.25,0,1.62,14.65,10.08,34.87,13.57,41.06C250.31,334.16,250.13,334.32,250,334.17Z" style="fill: rgb(38, 50, 56); transform-origin: 243.299px 313.52px;" id="elvhl7izpd0og" class="animable"></path><path d="M281.28,222.51c7.42-6.69,15.39-15,25.13-18.79S329.47,209.31,331,213s7.34,27.95-2.32,32-11.1-15.92-12.3-17.77-2.63-4.27-4.37-3.32-27.36,29.34-27.36,29.34Z" style="fill: rgb(211, 118, 106); transform-origin: 307.705px 228.042px;" id="elk7eqn79pzri" class="animable"></path><path d="M282.45,223.58c.55-.22,22.2-21.2,31.93-25s23.07,5.59,24.59,9.24,7.34,28-2.33,32-11.1-15.91-12.3-17.77-2.63-4.26-4.37-3.32S292.61,248,292.61,248Z" style="fill: rgb(211, 118, 106); transform-origin: 312.273px 222.846px;" id="ellqu11s1dq8" class="animable"></path><path d="M332.86,239.9c-1.83-1-3-3.25-4-5a21.8,21.8,0,0,1-2.21-6.32c-.37-1.91-.35-4-1-5.8a11.41,11.41,0,0,0-3.47-4.55c-1.3-1-2.53,0-3.57.95a51,51,0,0,0-4.27,4.55c-1.47,1.69-2.9,3.4-4.33,5.11a53.55,53.55,0,0,0-4.33,5.42c-.09.14.09.34.23.21a57,57,0,0,0,4-4.24q2.22-2.44,4.48-4.83c1.41-1.49,2.74-3.06,4.17-4.52.51-.52,1.47-1.69,2.23-1.82s1.93,1.52,2.34,2a9.89,9.89,0,0,1,1.83,5.36,29.89,29.89,0,0,0,1.2,5.71,15.42,15.42,0,0,0,2.5,4.87,21.57,21.57,0,0,0,4,3.2C332.83,240.35,333.06,240,332.86,239.9Z" style="fill: rgb(38, 50, 56); transform-origin: 319.297px 229.026px;" id="el11x08l5i5tqm" class="animable"></path><path d="M262.34,261.69S279,226.15,282.54,219c7.14-14.38,46.24-53.19,52.52-56.61s14.23,9.05-11.92,36.31c-13.79,14.37-12.78,25.26-10.23,30.48s11.79,13.06,20.68,9.08,9.27-19.54,16.93-24.43,8.5,12.52,6.3,23.7-9.78,22.79-16.35,28.94S314.14,293,314.14,293Z" style="fill: rgb(211, 118, 106); transform-origin: 310.109px 227.418px;" id="el5hd5be7x87" class="animable"></path><path d="M342.12,227.28c-2.29,4-4.72,9-9.1,11.05-4.54,2.09-8.78.34-12.48-2.53s-6.77-6.68-7.53-11.45a22.7,22.7,0,0,1,2-12.65,55.34,55.34,0,0,1,8.82-13.18c.15-.18-.14-.39-.3-.21-3.37,3.57-14.06,14.19-11.91,26.63.88,5.08,4,8.64,7.78,11.63,3.48,2.75,7.82,5,12.32,3.54,5.5-1.78,8.28-8,10.75-12.81C342.55,227.09,342.24,227.07,342.12,227.28Z" style="fill: rgb(38, 50, 56); transform-origin: 326.91px 219.405px;" id="el9qgsllat4is" class="animable"></path><path d="M234.91,289.85l-3.69,74.29a47,47,0,0,1-32.52-4c-16.3-8.73-53.7-50.83-70.79-76.21s-11.83-32.49,15.14-28.07,71.23,23.41,78.06,25.25S234.91,289.85,234.91,289.85Z" style="fill: rgb(255, 199, 39); transform-origin: 176.491px 310.025px;" id="el9jm2ozqa05d" class="animable"></path><path d="M218.56,289c-1.12,12.87-3.16,47.87-1.51,70.79,0,.14.53.16.54,0,1.51-19.27,1.75-57.86,1.76-70.78C219.35,288.8,218.58,288.77,218.56,289Z" style="fill: rgb(38, 50, 56); transform-origin: 217.89px 324.371px;" id="elkwtujnn39tf" class="animable"></path><g id="el8au1ll6l2ud"><path d="M234.4,300.21l-3.17,63.93a47,47,0,0,1-32.53-4c-16.3-8.73-53.69-50.83-70.79-76.21-13-19.29-13.07-28-.5-29.16Z" style="opacity: 0.1; transform-origin: 176.235px 310.094px;" class="animable"></path></g><path d="M44.75,430.7l154.76-.42-15.32-57.53s13.94-16.92,11.3-35.27c-2.89-20.11-37.67-69.75-40.72-72.62-12.27-11.51-26-14-39.85-6.53C76.64,279,44.75,430.7,44.75,430.7Z" style="fill: rgb(255, 199, 39); transform-origin: 122.13px 342.389px;" id="elns0m9poih59" class="animable"></path><path d="M162.86,364.18a146,146,0,0,0-21.4,3.52c-3.49.89-6.91,1.94-10.33,3.06-1.7.57-3.41,1.07-5.14,1.56a22.93,22.93,0,0,1-5.51,1,.13.13,0,0,0,0,.26,39.37,39.37,0,0,0,5.32-.1,38.19,38.19,0,0,0,5.06-.95c3.54-.88,7-1.91,10.58-2.82,7.13-1.83,14.26-3.66,21.51-5C163.28,364.71,163.2,364.14,162.86,364.18Z" style="fill: rgb(38, 50, 56); transform-origin: 141.755px 368.902px;" id="elx38yks0bte" class="animable"></path><path d="M180.68,370.56a159.39,159.39,0,0,0-17.88-.86c-3,0-6,.25-8.93.54-1.42.13-2.84.3-4.25.48-1.56.2-3.09.6-4.65.78-.16,0-.16.27,0,.26,1.48-.12,3,0,4.46,0s3-.08,4.46-.12c3-.07,6-.11,8.93-.21,6-.2,11.9-.34,17.87-.34C181,371.05,181,370.6,180.68,370.56Z" style="fill: rgb(38, 50, 56); transform-origin: 162.886px 370.728px;" id="elb115yo3kadc" class="animable"></path><path d="M120.93,260.68c1,2.94,17.32,21.05,31,19,4.46-.67,1.92-25.18,1.92-25.18l.23-1.85,3.14-25.93-31.7-16.14-4.56-2.1s-.39,7.15-.79,16.06c0,.41,0,.82-.06,1.26s-.07,1-.08,1.45c-.08,1.33-.15,2.69-.2,4.05,0,1-.08,2-.08,3.11s0,2.15-.06,3.23C119.67,248.41,120.52,259.43,120.93,260.68Z" style="fill: rgb(211, 118, 106); transform-origin: 138.455px 244.161px;" id="elyy8ho78slmq" class="animable"></path><path d="M120.19,224.58a52.38,52.38,0,0,0,33.91,28.11l3.14-25.93-31.7-16.14-4.56-2.1S120.59,215.67,120.19,224.58Z" style="fill: rgb(38, 50, 56); transform-origin: 138.715px 230.605px;" id="eljcdc5jnxzh" class="animable"></path><path d="M183.4,181.61c12.52,44.1-12.47,56.58-22,59.27-8.63,2.44-38.34,9.65-55.35-32.91s-.47-62.32,19-68.95S170.88,137.52,183.4,181.61Z" style="fill: rgb(211, 118, 106); transform-origin: 142.903px 189.771px;" id="eli2cpfep2nt" class="animable"></path><path d="M112,214.22c8.28-.82,3.52-26.65,3.52-26.65s29.77-4.16,33.27-34.52c0,0,17,15.56,28.89,12.95,4.16-.91-7.93-31.31-32.39-29,0,0-29.55-6.47-44.93,19.11S100.57,215.35,112,214.22Z" style="fill: rgb(38, 50, 56); transform-origin: 136.209px 175.259px;" id="el5rok789fyeq" class="animable"></path><path d="M112.43,186.8c9.39.55,19-.46,26.21-7.24,8.2-7.75,9.48-19.29,10.67-29.89,0-.18.31-.19.3,0-.16,11-2.18,23.32-10.71,31.07-7,6.31-17.48,8.18-26.53,6.58C112.08,187.27,112.14,186.79,112.43,186.8Z" style="fill: rgb(38, 50, 56); transform-origin: 130.895px 168.697px;" id="elnkj0xh3d6u" class="animable"></path><path d="M148.1,147.32c2.73,5.51,5.51,10.25,10.43,14.16a36.73,36.73,0,0,0,16.15,7,.11.11,0,0,1,0,.22c-11.52-.55-24.12-9.79-27.12-21.16C147.44,147.23,147.94,147,148.1,147.32Z" style="fill: rgb(38, 50, 56); transform-origin: 161.166px 157.933px;" id="elxem96ffr1b9" class="animable"></path><path d="M174,178.48c-1.08.09-2.1,0-3.18,0s-2.21.09-3.25-.64a1.64,1.64,0,0,1-.41-2c.76-1.36,2.27-1.71,3.74-1.75a6,6,0,0,1,4.11,1.32A1.75,1.75,0,0,1,174,178.48Z" style="fill: rgb(38, 50, 56); transform-origin: 171.3px 176.3px;" id="elr6qlk4pb6g8" class="animable"></path><path d="M143.33,185.7a31.39,31.39,0,0,0,3-1.12c1.14-.45,2.1-.68,2.83-1.73a1.64,1.64,0,0,0-.31-2c-1.19-1-2.72-.81-4.11-.33a5.93,5.93,0,0,0-3.39,2.66A1.75,1.75,0,0,0,143.33,185.7Z" style="fill: rgb(38, 50, 56); transform-origin: 145.256px 182.942px;" id="elpopjsmgqesb" class="animable"></path><path d="M152.27,195.19c0-.11-.22.19-.19.32.65,3.08.87,6.71-1.74,8.24-.08.05-.05.2,0,.17C153.73,202.83,153.38,198,152.27,195.19Z" style="fill: rgb(38, 50, 56); transform-origin: 151.669px 199.545px;" id="eliekswev8tds" class="animable"></path><path d="M148.93,192.45c-5,.51-3.66,10.56,1,10.09S153.16,192,148.93,192.45Z" style="fill: rgb(38, 50, 56); transform-origin: 149.29px 197.496px;" id="elvy38vyjiff" class="animable"></path><path d="M147,193.25c-.8.69-1.52,1.82-2.57,2.07-1.2.29-2.27-.64-3.22-1.54-.09-.09-.17,0-.15.14.24,1.93,1.25,3.8,3.35,3.81,1.92,0,3-1.89,3.26-3.9C147.74,193.46,147.35,193,147,193.25Z" style="fill: rgb(38, 50, 56); transform-origin: 144.368px 195.454px;" id="eljudb76mud4" class="animable"></path><path d="M170.34,191c0-.12.27.1.28.23.47,3.11,1.53,6.6,4.51,7.12.09,0,.11.17,0,.17C171.63,198.64,170.28,194,170.34,191Z" style="fill: rgb(38, 50, 56); transform-origin: 172.772px 194.744px;" id="elka6xqphghfo" class="animable"></path><path d="M172.51,187.25c4.91-1.28,7.11,8.62,2.57,9.81S168.4,188.32,172.51,187.25Z" style="fill: rgb(38, 50, 56); transform-origin: 173.938px 192.147px;" id="ele139sz2v6w" class="animable"></path><path d="M174.72,187.44c.9.35,1.89,1.13,2.84,1,1.1-.17,1.66-1.42,2.12-2.61,0-.12.15,0,.18.08.48,1.88.29,4-1.45,4.76-1.59.7-3.17-.65-4-2.44C174.21,187.89,174.36,187.3,174.72,187.44Z" style="fill: rgb(38, 50, 56); transform-origin: 177.204px 188.319px;" id="elg0q2wzc8yes" class="animable"></path><path d="M156.75,220c.82.66,1.66,1.6,2.8,1.6a8.37,8.37,0,0,0,3.3-1.1.11.11,0,0,1,.15.15,4.25,4.25,0,0,1-3.82,2.06,3.37,3.37,0,0,1-2.72-2.54C156.4,220,156.63,219.92,156.75,220Z" style="fill: rgb(38, 50, 56); transform-origin: 159.732px 221.341px;" id="el0ad0yimy6tvl" class="animable"></path><path d="M168.07,206.83s1.34,4.55,1.66,6.74c0,.21-.48.38-1.22.54,0,0,0,0-.08,0a10.53,10.53,0,0,1-10.7-2.37.23.23,0,0,1,.28-.35c3.21,1.68,6.48,1.75,9.92,1.3.06-.63-2.55-7.72-2.21-7.79,1.18-.29,3.66.18,5.14.38-2.51-9.56-6.53-18.63-8.89-28.18-.07-.35.41-.53.55-.23,4.89,9.21,8,20.14,10.87,29.94C173.76,208,169,207.07,168.07,206.83Z" style="fill: rgb(38, 50, 56); transform-origin: 165.545px 195.697px;" id="elpxgz8obryq" class="animable"></path><path d="M166.5,213.54a11.16,11.16,0,0,1-3.91,4.09,5.06,5.06,0,0,1-3,.64c-2.28-.25-2.63-2.25-2.48-4a11.64,11.64,0,0,1,.59-2.77A14.47,14.47,0,0,0,166.5,213.54Z" style="fill: rgb(38, 50, 56); transform-origin: 161.79px 214.897px;" id="elppyrx50we6c" class="animable"></path><path d="M162.59,217.63a5.06,5.06,0,0,1-3,.64c-2.28-.25-2.63-2.25-2.48-4C159.5,214.14,162.05,215.38,162.59,217.63Z" style="fill: rgb(255, 156, 189); transform-origin: 159.835px 216.277px;" id="elschufyagpis" class="animable"></path><path d="M118.16,190.72s-36.57,3.91-41.65,7.85c-2.09,1.61-.31,11.07,1.25,12.3,1,.78,25.78-4.42,40.93-5.7A25.26,25.26,0,0,1,118.16,190.72Z" style="fill: rgb(255, 199, 39); transform-origin: 97.1241px 200.835px;" id="elskr03dvonhg" class="animable"></path><path d="M124.27,213.06a13.35,13.35,0,0,1-5-2.41c-5.81-4.79-9.42-18.85-2.31-27.71h0c4.78-6,18.55-9.26,28.9-10.27,9.59-.94,21.74-.47,27.1,3.65,8.83,6.8,3.91,22.67-14.66,27.73-4.09,1.11-2.49,1.28-8.79,5.52C143.72,213.47,130.65,214.77,124.27,213.06Z" style="fill: rgb(255, 199, 39); transform-origin: 145.122px 193.03px;" id="elwrpzm7tslkf" class="animable"></path><g id="elwr4hinv0guk"><path d="M124.27,213.06a13.35,13.35,0,0,1-5-2.41c-5.81-4.79-9.42-18.85-2.31-27.71h0c4.78-6,18.55-9.26,28.9-10.27,9.59-.94,21.74-.47,27.1,3.65,8.83,6.8,3.91,22.67-14.66,27.73-4.09,1.11-2.49,1.28-8.79,5.52C143.72,213.47,130.65,214.77,124.27,213.06Z" style="opacity: 0.2; transform-origin: 145.122px 193.03px;" class="animable"></path></g><path d="M190.07,201a12.53,12.53,0,0,1-1.36,1.45c-2,1.77-4.54,2.54-8.77,1.4-2.77-.74-4.84-3.22-9.41-3a16.59,16.59,0,0,0-7.94,2.17,43,43,0,0,0-4.44,2.84c-.36.23-.71.49-1.07.75a11.39,11.39,0,0,1-1,.66,13.23,13.23,0,0,1-1.73.84c-6.87,2.88-18,2.51-22.23-.46-3.81-2.71-6.52-10.28-5.77-17.44a18.78,18.78,0,0,1,1-4.53,16.32,16.32,0,0,1,2.09-4.12c.17-.23.33-.45.51-.66a10.89,10.89,0,0,1,1.66-1.67c4.23-3.5,12.18-6.13,20.79-7.53.88-.14,1.75-.27,2.64-.39,1.9-.26,3.84-.45,5.74-.58,2.2-.15,4.4-.23,6.51-.2,7.5.07,14,1.29,17.41,3.87a15.93,15.93,0,0,1,5,7.15,25.11,25.11,0,0,1,1.2,4,32.67,32.67,0,0,1,.18,13A6.64,6.64,0,0,1,190.07,201Z" style="fill: rgb(38, 50, 56); transform-origin: 158.936px 190.304px;" id="elua1txc4yx1" class="animable"></path><g id="el8tfee6mssjd"><g style="opacity: 0.2; transform-origin: 158.66px 189.357px;" class="animable"><path d="M191,198.59a6.5,6.5,0,0,1-1,2.42,11.86,11.86,0,0,1-1.36,1.46L171.46,194a1.38,1.38,0,0,1-.29-.17l4.35-2.86Z" style="fill: rgb(255, 255, 255); transform-origin: 181.085px 196.72px;" id="eliu136hve4ed" class="animable"></path><path d="M162.59,203.06a43,43,0,0,0-4.44,2.84l-31.83-15.65a18.78,18.78,0,0,1,1-4.53Z" style="fill: rgb(255, 255, 255); transform-origin: 144.455px 195.81px;" id="eljd4kum43a6a" class="animable"></path><path d="M152.91,190.06l-2.58,1.83L129.39,181.6c.17-.23.33-.45.51-.66a10.09,10.09,0,0,1,1.67-1.66l20.65,10.14A1.59,1.59,0,0,1,152.91,190.06Z" style="fill: rgb(255, 255, 255); transform-origin: 141.15px 185.585px;" id="elglo1ium91oc" class="animable"></path><path d="M190.86,185.58l-30.13-14.81c2.2-.15,4.4-.23,6.51-.2l22.42,11A25.11,25.11,0,0,1,190.86,185.58Z" style="fill: rgb(255, 255, 255); transform-origin: 175.795px 178.072px;" id="el769yout7bsj" class="animable"></path><path d="M183.81,185.51l-1.48,1-30-14.75,2.64-.38Z" style="fill: rgb(255, 255, 255); transform-origin: 168.07px 178.945px;" id="elawcobh9d3zh" class="animable"></path><path d="M156.05,207.31a12.48,12.48,0,0,1-1.72.84l-15.92-7.81,1.41-1Z" style="fill: rgb(255, 255, 255); transform-origin: 147.23px 203.745px;" id="eldr86b8bzi1o" class="animable"></path></g></g><path d="M136.51,210.63a13.28,13.28,0,0,1-5-2.41c-5.81-4.79-9.42-18.85-2.32-27.72h0c4.78-6,18.56-9.25,28.9-10.26,9.6-.94,21.75-.47,27.1,3.65,8.84,6.8,8.26,22.6,5.65,27.45-1.78,3.31-6.16,4.58-11.15,3.24a16.86,16.86,0,0,1-3-1.23,13.15,13.15,0,0,0-6.15-1.73c-4.23,0-6.63,1.37-12.94,5.61C151.81,211.13,142.88,212.34,136.51,210.63Zm-5.92-29.26c-6.41,8-3.33,21.33,2.08,25.78,5,4.09,17,3.53,23.89-1.09,6.1-4.1,9-5.92,14-5.92a14.88,14.88,0,0,1,7,1.92,15.25,15.25,0,0,0,2.68,1.11c3.3.89,7.44.7,9.15-2.48,2.38-4.42,2.88-19.46-5.22-25.7-4.13-3.17-14-4.43-25.78-3.28-13.17,1.28-24.06,5.07-27.73,9.66Z" style="fill: rgb(255, 199, 39); transform-origin: 158.898px 190.609px;" id="elzr2kb9lkb57" class="animable"></path><path d="M117.32,207.51s-12.52-12.16-18.22-7.43,5.6,23.67,13.62,25a7.76,7.76,0,0,0,9.41-6.06Z" style="fill: rgb(211, 118, 106); transform-origin: 109.841px 212.139px;" id="ella3atoxqpp8" class="animable"></path><path d="M102.47,205.43c-.12,0-.11.18,0,.21,5.66,1.11,9.36,5.45,12.26,10.12-1.93-1.64-4.26-2.3-6.5.06-.12.12,0,.31.19.25a4.77,4.77,0,0,1,5.47.65,23,23,0,0,1,3.27,3.69c.33.42,1.13,0,.85-.5l-.07-.11C116.79,213.08,109.79,204.72,102.47,205.43Z" style="fill: rgb(38, 50, 56); transform-origin: 110.226px 212.985px;" id="elld1mqfk8k9" class="animable"></path><path d="M99.81,301.05C121.08,362.51,179,454.52,201.39,453.67c25-1,1.58-101.83-2.21-101.49-3.21.29-39.21-36.29-69-62.36C95.39,259.39,94.55,285.85,99.81,301.05Z" style="fill: rgb(211, 118, 106); transform-origin: 155.102px 364.752px;" id="el0c176wf7c6lq" class="animable"></path><path d="M196.83,350.68,161.26,419.8A49.18,49.18,0,0,1,132,401.93c-11.75-15.34-29.17-71.55-34.49-103.09s5.55-32,29.31-16.13,54.92,49,60.62,53.67S196.83,350.68,196.83,350.68Z" style="fill: rgb(255, 199, 39); transform-origin: 146.507px 346.121px;" id="el7p9nf1z1jwo" class="animable"></path><path d="M183.11,343.58c-7.14,11.45-25.63,43.09-35,65.21-.06.14.42.41.5.29,10.54-17.24,29-53.07,35.18-65.1C183.94,343.75,183.25,343.36,183.11,343.58Z" style="fill: rgb(38, 50, 56); transform-origin: 165.958px 376.312px;" id="el1rnlagqy626" class="animable"></path><path d="M159.3,418.73c-7.8-1.91-15.48-5.27-21.43-10.79-6.34-5.87-9.59-14.18-12.94-21.95q-5.22-12.12-9.62-24.57t-8-25.26c-2.38-8.47-4.67-17-6.7-25.53-.26-1.06-.54-2.13-.81-3.19-.09-.37-.61-.2-.56.15.62,4.17,1.46,8.31,2.35,12.43-.3-.72-.61-1.43-.92-2.14-.82-1.91-1.63-3.81-2.29-5.79a.16.16,0,0,0-.31.09,46.4,46.4,0,0,0,1.82,6,25,25,0,0,0,1.26,2.73c.26.47.52.94.8,1.4.07.12.14.24.22.35.81,3.73,1.68,7.46,2.69,11.14q3.51,12.93,7.91,25.61t9.62,25c1.71,4,3.44,8.1,5.37,12.06a44.15,44.15,0,0,0,7.06,10.84,34,34,0,0,0,9.73,7.32,48.85,48.85,0,0,0,11.63,4c1,.21,2,.36,3,.5C159.46,419.18,159.58,418.8,159.3,418.73Z" style="fill: rgb(38, 50, 56); transform-origin: 128.761px 363.183px;" id="elr8gqdbmm7kn" class="animable"></path><path d="M192.48,340.48a58,58,0,0,0-7.8-8.85c-3.62-3.54-7.32-7-11-10.48s-7.38-7.12-11.2-10.54c-1.53-1.38-3.07-2.73-4.62-4.1-.16-.24-.28-.51-.44-.76s-.36-.53-.55-.79c-.39-.53-.77-1.06-1.16-1.57-.77-1-1.59-2-2.44-2.95,0,0-.1,0-.07.06.69,1.1,1.4,2.18,2.18,3.22.37.5.76,1,1.14,1.5l.32.39c-2.46-2.17-4.93-4.33-7.37-6.52a.16.16,0,0,0-.22.22c3.58,3.61,7.08,7.3,10.65,10.92s7.22,7.07,10.87,10.55l11.06,10.52a103.28,103.28,0,0,1,8.37,8.5,28.27,28.27,0,0,1,6,11.23.1.1,0,0,0,.19,0A20.43,20.43,0,0,0,192.48,340.48Z" style="fill: rgb(38, 50, 56); transform-origin: 172.808px 325.083px;" id="elp5f5z9z87x" class="animable"></path><path d="M203.12,453.37c17.29-4.79,39.26-39.62,58.36-104.67,2.77-9.45-54.35-26.18-58.28-16.42-5.91,14.65-16.15,34.9-17.64,38.39C173,400.14,191.39,456.62,203.12,453.37Z" style="fill: rgb(211, 118, 106); transform-origin: 221.461px 391.413px;" id="elwxkki432w0r" class="animable"></path><path d="M181.33,402.49c-.61-6.6-.91-24.62,7.65-38.35.09-.15.3-.05.22.11-5.5,12-7.73,31.72-7.63,38.21A.12.12,0,1,1,181.33,402.49Z" style="fill: rgb(38, 50, 56); transform-origin: 185.14px 383.331px;" id="eliq5ot4t5pp" class="animable"></path><path d="M202.84,335s3.72-23.41,6.33-39.09c1.46-8.75,5.3-23.53,9.31-29.47,6-8.89,36.77-42.21,45-34.92,7.46,6.59-22.61,31.86-22.61,31.86S269,235.2,276.49,244.79s-30.25,33.63-30.25,33.63,29.51-28.31,35.7-17.19c4.68,8.4-28.31,32.1-28.31,32.1s25.53-24.16,30.72-15.72c5.73,9.32-23.35,33.1-23.35,33.1,9.57,23.66,5.8,43.15-4.5,52C254.39,364.53,202.84,335,202.84,335Z" style="fill: rgb(211, 118, 106); transform-origin: 243.969px 296.638px;" id="elgm9g47fpf7c" class="animable"></path><path d="M230.54,272.51c3.18-3.43,6.37-6.92,9.85-10.06s7.06-6.15,10.81-8.95c9.19-6.86,16-9.72,15.62-9.5-9.52,5.26-22.13,16.3-25.61,19.43s-7.09,6.09-10.56,9.22C230.57,272.72,230.46,272.59,230.54,272.51Z" style="fill: rgb(38, 50, 56); transform-origin: 248.674px 258.329px;" id="elit870ka4u4" class="animable"></path><path d="M241.63,285.26c4.25-4.21,8.32-8.54,12.75-12.55s9-7.41,13.64-11.09c.36-.29.39,0,0,.3-4.53,3.87-8.42,7.79-12.9,11.71s-9.12,7.67-13.43,11.74C241.66,285.43,241.57,285.32,241.63,285.26Z" style="fill: rgb(38, 50, 56); transform-origin: 254.956px 273.444px;" id="elf4r8el1dg5b" class="animable"></path><path d="M249.19,297.91c6.16-6.76,13.57-12.37,21-17.7.37-.26.37.11,0,.4-7.08,5.76-12.67,10.22-20.74,17.52C249.3,298.24,249.06,298.05,249.19,297.91Z" style="fill: rgb(38, 50, 56); transform-origin: 259.81px 289.142px;" id="ely2maltmjb69" class="animable"></path><path d="M260.81,357.83c7.8-16.51,5.43-30.27-.59-46.84l-.2-.54.45-.38c7.19-6.2,14.29-12.84,19.79-20.6,3.49-5.06,7.14-15.69-3.35-11.65-4,1.43-9.62,5.29-13.32,7.45,3.93-3.8,9.14-8.63,12.62-12.78,2.06-2.47,4.19-5,5.16-7.88,1.94-6.08-4.68-6.11-8.71-4.51-2.7.84-6.31,3.17-8.82,4.53l3.8-3.43a47.85,47.85,0,0,0,8.46-9.89,5.9,5.9,0,0,0,1.08-2.93c.2-3.24-3.12-6.31-6.36-5.49,3.33-1.06,7,2.06,6.87,5.5a6.42,6.42,0,0,1-1,3.24A44.73,44.73,0,0,1,268.39,262l-.66-.91a21,21,0,0,1,9.48-3.32c4.44-.3,7.1,3,5.72,7.27-1,3.33-3.26,5.92-5.38,8.54s-4.39,4.93-6.76,7.25l-1.12-1.44c3.17-1.9,6.51-3.84,10.29-4.36,5.61-.72,6.79,4.34,5.23,8.77-2.36,7.12-7.85,12.48-12.9,17.75-3.44,3.42-7,6.68-10.76,9.77l.26-.93c5.66,16.87,7.85,31.11-1,47.4Z" style="fill: rgb(38, 50, 56); transform-origin: 272.921px 300.255px;" id="elikquy56duk" class="animable"></path></g><defs>     <filter id="active" height="200%">         <feMorphology in="SourceAlpha" result="DILATED" operator="dilate" radius="2"></feMorphology>                <feFlood flood-color="#32DFEC" flood-opacity="1" result="PINK"></feFlood>        <feComposite in="PINK" in2="DILATED" operator="in" result="OUTLINE"></feComposite>        <feMerge>            <feMergeNode in="OUTLINE"></feMergeNode>            <feMergeNode in="SourceGraphic"></feMergeNode>        </feMerge>    </filter>    <filter id="hover" height="200%">        <feMorphology in="SourceAlpha" result="DILATED" operator="dilate" radius="2"></feMorphology>                <feFlood flood-color="#ff0000" flood-opacity="0.5" result="PINK"></feFlood>        <feComposite in="PINK" in2="DILATED" operator="in" result="OUTLINE"></feComposite>        <feMerge>            <feMergeNode in="OUTLINE"></feMergeNode>            <feMergeNode in="SourceGraphic"></feMergeNode>        </feMerge>            <feColorMatrix type="matrix" values="0   0   0   0   0                0   1   0   0   0                0   0   0   0   0                0   0   0   1   0 "></feColorMatrix>    </filter></defs></svg>